<?xml version="1.0" encoding="UTF-8" standalone="no"?><!DOCTYPE svg PUBLIC "-//W3C//DTD SVG 1.1//EN" "http://www.w3.org/Graphics/SVG/1.1/DTD/svg11.dtd"><svg width="100%" height="100%" viewBox="0 0 221 40" version="1.1" xmlns="http://www.w3.org/2000/svg" xmlns:xlink="http://www.w3.org/1999/xlink" xml:space="preserve" xmlns:serif="http://www.serif.com/" style="fill-rule:evenodd;clip-rule:evenodd;stroke-linejoin:round;stroke-miterlimit:1.41421;"><path d="M127.586,21.111c-0.449,-2.955 -2.72,-5.921 -5.994,-5.659c-3.956,0.318 -6.369,4.729 -7.298,8.111c-1.142,4.149 -0.81,8.996 1.673,12.613c2.137,3.116 5.575,4.608 9.209,3.234c4.366,-1.652 7.857,-5.66 11.291,-8.676c3.969,-3.487 8.044,-6.96 12.66,-9.571c4.4,-2.487 9.636,-4.283 14.743,-3.351c5.585,1.019 9.297,5.744 9.277,11.383c-0.009,2.954 -1.181,5.849 -3.863,7.339c-2.253,1.254 -5.094,1.369 -7.616,1.29c-2.043,-0.064 -4.071,-0.487 -4.891,-2.64c-0.463,-1.214 -0.531,-2.869 -0.105,-4.099c0.641,-1.854 2.464,-3.135 4.341,-3.567c0.998,-0.229 2.298,-0.26 3.077,0.586c0.71,1.209 0.705,2.335 -0.015,3.377c-0.656,1.392 -1.81,1.579 -3.465,0.564c0.189,-0.537 -0.663,-0.768 -0.85,-0.236c-0.516,1.463 0.738,2.689 2.228,2.435c1.786,-0.305 3.323,-2.48 3.54,-4.173c0.634,-4.946 -5.964,-3.618 -8.207,-1.563c-2.693,2.468 -2.465,7.991 1.056,9.616c2.07,0.954 4.854,0.681 7.05,0.425c2.008,-0.235 3.999,-0.81 5.574,-2.13c3.561,-2.987 3.646,-8.436 1.987,-12.452c-1.935,-4.687 -6.531,-7.158 -11.465,-7.264c-11.683,-0.251 -21.201,9.447 -29.3,16.612c-2.849,2.522 -6.775,6.561 -11.015,5.674c-3.982,-0.833 -6.085,-5.256 -6.527,-8.927c-0.473,-3.931 0.448,-8.57 3.2,-11.562c1.431,-1.556 3.508,-2.766 5.628,-1.841c1.925,0.84 2.922,2.683 3.225,4.686c0.085,0.559 0.936,0.322 0.852,-0.234Z" style="fill:url(#_Linear1);"/><path d="M176.648,25.782c1.403,3.946 0.643,8.172 -2.112,11.343c-0.371,0.426 0.25,1.053 0.623,0.624c2.95,-3.396 3.851,-7.952 2.34,-12.201c-0.189,-0.532 -1.041,-0.303 -0.851,0.234Z" style="fill:url(#_Linear2);"/><path d="M175.069,38.098c15.053,0 30.107,0 45.159,0c0.568,0 0.569,-0.882 0,-0.882c-15.052,0 -30.106,0 -45.159,0c-0.568,0 -0.568,0.882 0,0.882Z" style="fill:url(#_Linear3);"/><path d="M206.915,32.993c0,1.324 -1.073,2.398 -2.398,2.398c-1.324,0 -2.397,-1.074 -2.397,-2.398c0,-1.324 1.073,-2.398 2.397,-2.398c1.325,0 2.398,1.074 2.398,2.398Z" style="fill:url(#_Linear4);"/><path d="M214.259,33.592c0,0.994 -0.805,1.799 -1.798,1.799c-0.993,0 -1.799,-0.805 -1.799,-1.799c0,-0.993 0.806,-1.798 1.799,-1.798c0.993,0 1.798,0.805 1.798,1.798Z" style="fill:url(#_Linear5);"/><path d="M220.653,34.192c0,0.662 -0.537,1.199 -1.199,1.199c-0.662,0 -1.199,-0.537 -1.199,-1.199c0,-0.662 0.537,-1.199 1.199,-1.199c0.662,0 1.199,0.537 1.199,1.199Z" style="fill:url(#_Linear6);"/><path d="M110.503,0c0,0 0.211,1.373 0.452,3.432c0.128,1.03 0.281,2.231 0.409,3.518c0.148,1.287 0.252,2.66 0.374,4.033c0.104,1.373 0.403,2.745 0.427,4.032c0.01,1.287 -0.194,2.489 -0.421,3.518c-0.233,1.03 -0.529,1.888 -0.784,2.489c-0.25,0.6 -0.457,0.944 -0.457,0.944l-0.352,0c0,0 -0.207,-0.344 -0.457,-0.944c-0.255,-0.601 -0.551,-1.459 -0.784,-2.489c-0.227,-1.029 -0.43,-2.231 -0.421,-3.518c0.024,-1.287 0.323,-2.659 0.426,-4.032c0.122,-1.373 0.227,-2.746 0.375,-4.033c0.128,-1.287 0.281,-2.488 0.409,-3.518c0.241,-2.059 0.452,-3.432 0.452,-3.432l0.352,0Z" style="fill:url(#_Linear7);"/><path d="M111.854,22.743c0,0 0.09,-0.277 0.249,-0.761c0.081,-0.243 0.169,-0.537 0.313,-0.867c0.14,-0.33 0.279,-0.715 0.468,-1.116c0.197,-0.395 0.381,-0.841 0.632,-1.284c0.246,-0.447 0.51,-0.917 0.827,-1.377c0.296,-0.476 0.647,-0.935 1.005,-1.406c0.373,-0.457 0.756,-0.924 1.182,-1.354l0.639,-0.65c0.225,-0.203 0.451,-0.406 0.675,-0.608c0.459,-0.392 0.929,-0.769 1.436,-1.054c0.999,-0.598 2.079,-0.897 2.993,-1.05c0.467,-0.052 0.886,-0.111 1.267,-0.084c0.38,0.021 0.701,0.016 0.97,0.084c0.532,0.102 0.82,0.193 0.82,0.193l-0.001,0.177c0,0 -0.292,0.115 -0.774,0.26c-0.242,0.06 -0.526,0.196 -0.847,0.304c-0.325,0.092 -0.67,0.285 -1.051,0.424c-0.192,0.068 -0.379,0.185 -0.577,0.278c-0.198,0.095 -0.408,0.172 -0.608,0.297c-0.202,0.119 -0.413,0.229 -0.629,0.338c-0.211,0.122 -0.427,0.246 -0.646,0.372c-0.448,0.234 -0.899,0.511 -1.365,0.786c-0.462,0.286 -0.909,0.612 -1.34,0.966c-0.435,0.347 -0.838,0.738 -1.233,1.125c-0.383,0.399 -0.764,0.793 -1.093,1.209c-0.355,0.399 -0.643,0.825 -0.943,1.213c-0.302,0.388 -0.541,0.787 -0.787,1.141c-0.238,0.358 -0.422,0.704 -0.605,1.003c-0.184,0.297 -0.318,0.579 -0.441,0.802c-0.238,0.45 -0.374,0.708 -0.374,0.708l-0.162,-0.069Z" style="fill:url(#_Linear8);"/><path d="M113.544,36.318c0,1.776 -1.441,3.217 -3.217,3.217c-1.777,0 -3.217,-1.441 -3.217,-3.217c0,-1.776 1.44,-3.217 3.217,-3.217c1.776,0 3.217,1.441 3.217,3.217Z" style="fill:url(#_Linear9);"/><path d="M112.363,27.701c0,1.125 -0.911,2.036 -2.036,2.036c-1.125,0 -2.036,-0.911 -2.036,-2.036c0,-1.125 0.911,-2.036 2.036,-2.036c1.125,0 2.036,0.911 2.036,2.036Z" style="fill:url(#_Linear10);"/><path d="M93.919,21.345c0.562,-3.701 4.033,-6.428 7.52,-4.052c3.076,2.096 4.422,6.411 4.63,9.939c0.207,3.505 -0.72,7.361 -3.3,9.884c-2.939,2.873 -6.675,2.083 -9.79,-0.063c-5.289,-3.642 -9.704,-8.557 -14.806,-12.47c-4.526,-3.47 -9.612,-6.657 -15.332,-7.598c-4.703,-0.773 -9.86,0.022 -13.171,3.732c-2.954,3.312 -4.038,8.869 -2.122,12.943c2.083,4.43 7.041,5.147 11.438,5.047c4.354,-0.1 7.07,-3.178 5.911,-7.602c-0.907,-3.466 -8.653,-7.34 -9.732,-2.151c-0.396,1.901 1.05,4.224 2.765,5.028c1.58,0.74 3.634,-0.273 2.964,-2.173c-0.187,-0.531 -1.04,-0.302 -0.85,0.236c-0.92,0.116 -1.839,0.233 -2.759,0.35c-0.545,-0.562 -0.939,-1.216 -1.182,-1.96c-0.451,-1.951 0.703,-2.785 2.235,-3.063c1.503,-0.272 3.597,0.923 4.611,1.975c2.222,2.304 1.655,7.096 -1.556,8.172c-1.978,0.663 -4.866,0.398 -6.902,0.041c-2.846,-0.496 -5.295,-2.011 -6.371,-4.801c-1.932,-5.003 0.491,-11.318 5.199,-13.783c4.692,-2.457 10.528,-1.395 15.163,0.646c4.756,2.095 8.94,5.34 12.884,8.673c3.791,3.204 7.305,7.019 11.476,9.731c3.216,2.091 6.99,2.808 10.098,0.133c3.275,-2.82 4.356,-7.501 3.955,-11.65c-0.383,-3.966 -2.219,-8.91 -6.159,-10.62c-3.794,-1.647 -7.117,1.595 -7.667,5.222c-0.085,0.555 0.765,0.794 0.85,0.234Z" style="fill:url(#_Linear11);"/><path d="M43.155,25.548c-1.511,4.249 -0.611,8.804 2.339,12.201c0.374,0.429 0.996,-0.198 0.625,-0.624c-2.756,-3.171 -3.516,-7.397 -2.113,-11.343c0.19,-0.536 -0.662,-0.767 -0.851,-0.234Z" style="fill:url(#_Linear12);"/><path d="M45.585,37.216c-15.053,0 -30.106,0 -45.159,0c-0.568,0 -0.569,0.882 0,0.882c15.053,0 30.106,0 45.159,0c0.568,0 0.569,-0.882 0,-0.882Z" style="fill:url(#_Linear13);"/><path d="M13.739,32.993c0,1.324 1.073,2.398 2.398,2.398c1.324,0 2.397,-1.074 2.397,-2.398c0,-1.324 -1.073,-2.398 -2.397,-2.398c-1.325,0 -2.398,1.074 -2.398,2.398Z" style="fill:url(#_Linear14);"/><path d="M6.395,33.592c0,0.994 0.806,1.799 1.799,1.799c0.993,0 1.798,-0.805 1.798,-1.799c0,-0.993 -0.805,-1.798 -1.798,-1.798c-0.993,0 -1.799,0.805 -1.799,1.798Z" style="fill:url(#_Linear15);"/><path d="M0.001,34.192c0,0.662 0.536,1.199 1.199,1.199c0.662,0 1.199,-0.537 1.199,-1.199c0,-0.662 -0.537,-1.199 -1.199,-1.199c-0.663,0 -1.199,0.537 -1.199,1.199Z" style="fill:url(#_Linear16);"/><path d="M108.638,22.812c0,0 -0.137,-0.258 -0.375,-0.708c-0.122,-0.223 -0.256,-0.505 -0.44,-0.802c-0.183,-0.299 -0.367,-0.645 -0.605,-1.003c-0.247,-0.354 -0.484,-0.753 -0.787,-1.141c-0.3,-0.388 -0.589,-0.814 -0.943,-1.213c-0.329,-0.416 -0.71,-0.81 -1.093,-1.209c-0.395,-0.387 -0.798,-0.778 -1.233,-1.125c-0.431,-0.354 -0.878,-0.68 -1.34,-0.966c-0.466,-0.275 -0.917,-0.552 -1.365,-0.786c-0.219,-0.126 -0.435,-0.25 -0.646,-0.372c-0.216,-0.109 -0.427,-0.219 -0.629,-0.338c-0.199,-0.125 -0.41,-0.202 -0.608,-0.297c-0.198,-0.093 -0.385,-0.21 -0.577,-0.278c-0.381,-0.139 -0.725,-0.332 -1.05,-0.424c-0.322,-0.108 -0.606,-0.244 -0.848,-0.304c-0.482,-0.145 -0.773,-0.26 -0.773,-0.26l-0.002,-0.177c0,0 0.288,-0.091 0.82,-0.193c0.268,-0.068 0.59,-0.063 0.97,-0.084c0.381,-0.027 0.8,0.032 1.267,0.084c0.914,0.153 1.993,0.452 2.993,1.05c0.507,0.285 0.977,0.662 1.436,1.054c0.224,0.202 0.449,0.405 0.675,0.608l0.638,0.65c0.427,0.43 0.811,0.897 1.183,1.354c0.358,0.471 0.709,0.93 1.005,1.406c0.317,0.46 0.581,0.93 0.826,1.377c0.251,0.443 0.437,0.889 0.633,1.284c0.189,0.401 0.328,0.786 0.468,1.116c0.144,0.33 0.232,0.624 0.312,0.867c0.159,0.484 0.25,0.761 0.25,0.761l-0.162,0.069Z" style="fill:url(#_Linear17);"/><defs><linearGradient id="_Linear1" x1="0" y1="0" x2="1" y2="0" gradientUnits="userSpaceOnUse" gradientTransform="matrix(60.3655,0,0,60.3655,113.666,27.679)"><stop offset="0" style="stop-color:#daa45a;stop-opacity:1"/><stop offset="0.1" style="stop-color:#f3c14e;stop-opacity:1"/><stop offset="0.2" style="stop-color:#fed469;stop-opacity:1"/><stop offset="0.3" style="stop-color:#fed77e;stop-opacity:1"/><stop offset="0.4" style="stop-color:#fed052;stop-opacity:1"/><stop offset="0.5" style="stop-color:#f5bb53;stop-opacity:1"/><stop offset="0.6" style="stop-color:#f9cb76;stop-opacity:1"/><stop offset="0.7" style="stop-color:#fed571;stop-opacity:1"/><stop offset="0.8" style="stop-color:#f5c24e;stop-opacity:1"/><stop offset="0.9" style="stop-color:#e2ad55;stop-opacity:1"/><stop offset="1" style="stop-color:#fecf4c;stop-opacity:1"/></linearGradient><linearGradient id="_Linear2" x1="0" y1="0" x2="1" y2="0" gradientUnits="userSpaceOnUse" gradientTransform="matrix(3.79865,0,0,3.79865,174.422,31.569)"><stop offset="0" style="stop-color:#daa45a;stop-opacity:1"/><stop offset="0.1" style="stop-color:#f3c14e;stop-opacity:1"/><stop offset="0.2" style="stop-color:#fed469;stop-opacity:1"/><stop offset="0.3" style="stop-color:#fed77e;stop-opacity:1"/><stop offset="0.4" style="stop-color:#fed052;stop-opacity:1"/><stop offset="0.5" style="stop-color:#f5bb53;stop-opacity:1"/><stop offset="0.6" style="stop-color:#f9cb76;stop-opacity:1"/><stop offset="0.7" style="stop-color:#fed571;stop-opacity:1"/><stop offset="0.8" style="stop-color:#f5c24e;stop-opacity:1"/><stop offset="0.9" style="stop-color:#e2ad55;stop-opacity:1"/><stop offset="1" style="stop-color:#fecf4c;stop-opacity:1"/></linearGradient><linearGradient id="_Linear3" x1="0" y1="0" x2="1" y2="0" gradientUnits="userSpaceOnUse" gradientTransform="matrix(46.0117,0,0,46.0117,174.643,37.657)"><stop offset="0" style="stop-color:#daa45a;stop-opacity:1"/><stop offset="0.1" style="stop-color:#f3c14e;stop-opacity:1"/><stop offset="0.2" style="stop-color:#fed469;stop-opacity:1"/><stop offset="0.3" style="stop-color:#fed77e;stop-opacity:1"/><stop offset="0.4" style="stop-color:#fed052;stop-opacity:1"/><stop offset="0.5" style="stop-color:#f5bb53;stop-opacity:1"/><stop offset="0.6" style="stop-color:#f9cb76;stop-opacity:1"/><stop offset="0.7" style="stop-color:#fed571;stop-opacity:1"/><stop offset="0.8" style="stop-color:#f5c24e;stop-opacity:1"/><stop offset="0.9" style="stop-color:#e2ad55;stop-opacity:1"/><stop offset="1" style="stop-color:#fecf4c;stop-opacity:1"/></linearGradient><linearGradient id="_Linear4" x1="0" y1="0" x2="1" y2="0" gradientUnits="userSpaceOnUse" gradientTransform="matrix(4.7957,0,0,4.7957,202.12,32.993)"><stop offset="0" style="stop-color:#daa45a;stop-opacity:1"/><stop offset="0.1" style="stop-color:#f3c14e;stop-opacity:1"/><stop offset="0.2" style="stop-color:#fed469;stop-opacity:1"/><stop offset="0.3" style="stop-color:#fed77e;stop-opacity:1"/><stop offset="0.4" style="stop-color:#fed052;stop-opacity:1"/><stop offset="0.5" style="stop-color:#f5bb53;stop-opacity:1"/><stop offset="0.6" style="stop-color:#f9cb76;stop-opacity:1"/><stop offset="0.7" style="stop-color:#fed571;stop-opacity:1"/><stop offset="0.8" style="stop-color:#f5c24e;stop-opacity:1"/><stop offset="0.9" style="stop-color:#e2ad55;stop-opacity:1"/><stop offset="1" style="stop-color:#fecf4c;stop-opacity:1"/></linearGradient><linearGradient id="_Linear5" x1="0" y1="0" x2="1" y2="0" gradientUnits="userSpaceOnUse" gradientTransform="matrix(3.59682,0,0,3.59682,210.662,33.592)"><stop offset="0" style="stop-color:#daa45a;stop-opacity:1"/><stop offset="0.1" style="stop-color:#f3c14e;stop-opacity:1"/><stop offset="0.2" style="stop-color:#fed469;stop-opacity:1"/><stop offset="0.3" style="stop-color:#fed77e;stop-opacity:1"/><stop offset="0.4" style="stop-color:#fed052;stop-opacity:1"/><stop offset="0.5" style="stop-color:#f5bb53;stop-opacity:1"/><stop offset="0.6" style="stop-color:#f9cb76;stop-opacity:1"/><stop offset="0.7" style="stop-color:#fed571;stop-opacity:1"/><stop offset="0.8" style="stop-color:#f5c24e;stop-opacity:1"/><stop offset="0.9" style="stop-color:#e2ad55;stop-opacity:1"/><stop offset="1" style="stop-color:#fecf4c;stop-opacity:1"/></linearGradient><linearGradient id="_Linear6" x1="0" y1="0" x2="1" y2="0" gradientUnits="userSpaceOnUse" gradientTransform="matrix(2.3979,0,0,2.3979,218.255,34.192)"><stop offset="0" style="stop-color:#daa45a;stop-opacity:1"/><stop offset="0.1" style="stop-color:#f3c14e;stop-opacity:1"/><stop offset="0.2" style="stop-color:#fed469;stop-opacity:1"/><stop offset="0.3" style="stop-color:#fed77e;stop-opacity:1"/><stop offset="0.4" style="stop-color:#fed052;stop-opacity:1"/><stop offset="0.5" style="stop-color:#f5bb53;stop-opacity:1"/><stop offset="0.6" style="stop-color:#f9cb76;stop-opacity:1"/><stop offset="0.7" style="stop-color:#fed571;stop-opacity:1"/><stop offset="0.8" style="stop-color:#f5c24e;stop-opacity:1"/><stop offset="0.9" style="stop-color:#e2ad55;stop-opacity:1"/><stop offset="1" style="stop-color:#fecf4c;stop-opacity:1"/></linearGradient><linearGradient id="_Linear7" x1="0" y1="0" x2="1" y2="0" gradientUnits="userSpaceOnUse" gradientTransform="matrix(3.67717,0,0,3.67717,108.488,10.983)"><stop offset="0" style="stop-color:#daa45a;stop-opacity:1"/><stop offset="0.1" style="stop-color:#f3c14e;stop-opacity:1"/><stop offset="0.2" style="stop-color:#fed469;stop-opacity:1"/><stop offset="0.3" style="stop-color:#fed77e;stop-opacity:1"/><stop offset="0.4" style="stop-color:#fed052;stop-opacity:1"/><stop offset="0.5" style="stop-color:#f5bb53;stop-opacity:1"/><stop offset="0.6" style="stop-color:#f9cb76;stop-opacity:1"/><stop offset="0.7" style="stop-color:#fed571;stop-opacity:1"/><stop offset="0.8" style="stop-color:#f5c24e;stop-opacity:1"/><stop offset="0.9" style="stop-color:#e2ad55;stop-opacity:1"/><stop offset="1" style="stop-color:#fecf4c;stop-opacity:1"/></linearGradient><linearGradient id="_Linear8" x1="0" y1="0" x2="1" y2="0" gradientUnits="userSpaceOnUse" gradientTransform="matrix(13.4765,0,0,13.4765,111.854,16.969)"><stop offset="0" style="stop-color:#daa45a;stop-opacity:1"/><stop offset="0.1" style="stop-color:#f3c14e;stop-opacity:1"/><stop offset="0.2" style="stop-color:#fed469;stop-opacity:1"/><stop offset="0.3" style="stop-color:#fed77e;stop-opacity:1"/><stop offset="0.4" style="stop-color:#fed052;stop-opacity:1"/><stop offset="0.5" style="stop-color:#f5bb53;stop-opacity:1"/><stop offset="0.6" style="stop-color:#f9cb76;stop-opacity:1"/><stop offset="0.7" style="stop-color:#fed571;stop-opacity:1"/><stop offset="0.8" style="stop-color:#f5c24e;stop-opacity:1"/><stop offset="0.9" style="stop-color:#e2ad55;stop-opacity:1"/><stop offset="1" style="stop-color:#fecf4c;stop-opacity:1"/></linearGradient><linearGradient id="_Linear9" x1="0" y1="0" x2="1" y2="0" gradientUnits="userSpaceOnUse" gradientTransform="matrix(6.43439,0,0,6.43439,107.11,36.318)"><stop offset="0" style="stop-color:#daa45a;stop-opacity:1"/><stop offset="0.1" style="stop-color:#f3c14e;stop-opacity:1"/><stop offset="0.2" style="stop-color:#fed469;stop-opacity:1"/><stop offset="0.3" style="stop-color:#fed77e;stop-opacity:1"/><stop offset="0.4" style="stop-color:#fed052;stop-opacity:1"/><stop offset="0.5" style="stop-color:#f5bb53;stop-opacity:1"/><stop offset="0.6" style="stop-color:#f9cb76;stop-opacity:1"/><stop offset="0.7" style="stop-color:#fed571;stop-opacity:1"/><stop offset="0.8" style="stop-color:#f5c24e;stop-opacity:1"/><stop offset="0.9" style="stop-color:#e2ad55;stop-opacity:1"/><stop offset="1" style="stop-color:#fecf4c;stop-opacity:1"/></linearGradient><linearGradient id="_Linear10" x1="0" y1="0" x2="1" y2="0" gradientUnits="userSpaceOnUse" gradientTransform="matrix(4.0726,0,0,4.0726,108.291,27.701)"><stop offset="0" style="stop-color:#daa45a;stop-opacity:1"/><stop offset="0.1" style="stop-color:#f3c14e;stop-opacity:1"/><stop offset="0.2" style="stop-color:#fed469;stop-opacity:1"/><stop offset="0.3" style="stop-color:#fed77e;stop-opacity:1"/><stop offset="0.4" style="stop-color:#fed052;stop-opacity:1"/><stop offset="0.5" style="stop-color:#f5bb53;stop-opacity:1"/><stop offset="0.6" style="stop-color:#f9cb76;stop-opacity:1"/><stop offset="0.7" style="stop-color:#fed571;stop-opacity:1"/><stop offset="0.8" style="stop-color:#f5c24e;stop-opacity:1"/><stop offset="0.9" style="stop-color:#e2ad55;stop-opacity:1"/><stop offset="1" style="stop-color:#fecf4c;stop-opacity:1"/></linearGradient><linearGradient id="_Linear11" x1="0" y1="0" x2="1" y2="0" gradientUnits="userSpaceOnUse" gradientTransform="matrix(60.3857,0,0,60.3857,46.5894,27.671)"><stop offset="0" style="stop-color:#daa45a;stop-opacity:1"/><stop offset="0.1" style="stop-color:#f3c14e;stop-opacity:1"/><stop offset="0.2" style="stop-color:#fed469;stop-opacity:1"/><stop offset="0.3" style="stop-color:#fed77e;stop-opacity:1"/><stop offset="0.4" style="stop-color:#fed052;stop-opacity:1"/><stop offset="0.5" style="stop-color:#f5bb53;stop-opacity:1"/><stop offset="0.6" style="stop-color:#f9cb76;stop-opacity:1"/><stop offset="0.7" style="stop-color:#fed571;stop-opacity:1"/><stop offset="0.8" style="stop-color:#f5c24e;stop-opacity:1"/><stop offset="0.9" style="stop-color:#e2ad55;stop-opacity:1"/><stop offset="1" style="stop-color:#fecf4c;stop-opacity:1"/></linearGradient><linearGradient id="_Linear12" x1="0" y1="0" x2="1" y2="0" gradientUnits="userSpaceOnUse" gradientTransform="matrix(3.799,0,0,3.799,42.4334,31.569)"><stop offset="0" style="stop-color:#daa45a;stop-opacity:1"/><stop offset="0.1" style="stop-color:#f3c14e;stop-opacity:1"/><stop offset="0.2" style="stop-color:#fed469;stop-opacity:1"/><stop offset="0.3" style="stop-color:#fed77e;stop-opacity:1"/><stop offset="0.4" style="stop-color:#fed052;stop-opacity:1"/><stop offset="0.5" style="stop-color:#f5bb53;stop-opacity:1"/><stop offset="0.6" style="stop-color:#f9cb76;stop-opacity:1"/><stop offset="0.7" style="stop-color:#fed571;stop-opacity:1"/><stop offset="0.8" style="stop-color:#f5c24e;stop-opacity:1"/><stop offset="0.9" style="stop-color:#e2ad55;stop-opacity:1"/><stop offset="1" style="stop-color:#fecf4c;stop-opacity:1"/></linearGradient><linearGradient id="_Linear13" x1="0" y1="0" x2="1" y2="0" gradientUnits="userSpaceOnUse" gradientTransform="matrix(46.0117,0,0,46.0117,-0.000626412,37.657)"><stop offset="0" style="stop-color:#daa45a;stop-opacity:1"/><stop offset="0.1" style="stop-color:#f3c14e;stop-opacity:1"/><stop offset="0.2" style="stop-color:#fed469;stop-opacity:1"/><stop offset="0.3" style="stop-color:#fed77e;stop-opacity:1"/><stop offset="0.4" style="stop-color:#fed052;stop-opacity:1"/><stop offset="0.5" style="stop-color:#f5bb53;stop-opacity:1"/><stop offset="0.6" style="stop-color:#f9cb76;stop-opacity:1"/><stop offset="0.7" style="stop-color:#fed571;stop-opacity:1"/><stop offset="0.8" style="stop-color:#f5c24e;stop-opacity:1"/><stop offset="0.9" style="stop-color:#e2ad55;stop-opacity:1"/><stop offset="1" style="stop-color:#fecf4c;stop-opacity:1"/></linearGradient><linearGradient id="_Linear14" x1="0" y1="0" x2="1" y2="0" gradientUnits="userSpaceOnUse" gradientTransform="matrix(4.7957,0,0,4.7957,13.7394,32.993)"><stop offset="0" style="stop-color:#daa45a;stop-opacity:1"/><stop offset="0.1" style="stop-color:#f3c14e;stop-opacity:1"/><stop offset="0.2" style="stop-color:#fed469;stop-opacity:1"/><stop offset="0.3" style="stop-color:#fed77e;stop-opacity:1"/><stop offset="0.4" style="stop-color:#fed052;stop-opacity:1"/><stop offset="0.5" style="stop-color:#f5bb53;stop-opacity:1"/><stop offset="0.6" style="stop-color:#f9cb76;stop-opacity:1"/><stop offset="0.7" style="stop-color:#fed571;stop-opacity:1"/><stop offset="0.8" style="stop-color:#f5c24e;stop-opacity:1"/><stop offset="0.9" style="stop-color:#e2ad55;stop-opacity:1"/><stop offset="1" style="stop-color:#fecf4c;stop-opacity:1"/></linearGradient><linearGradient id="_Linear15" x1="0" y1="0" x2="1" y2="0" gradientUnits="userSpaceOnUse" gradientTransform="matrix(3.5968,0,0,3.5968,6.39537,33.592)"><stop offset="0" style="stop-color:#daa45a;stop-opacity:1"/><stop offset="0.1" style="stop-color:#f3c14e;stop-opacity:1"/><stop offset="0.2" style="stop-color:#fed469;stop-opacity:1"/><stop offset="0.3" style="stop-color:#fed77e;stop-opacity:1"/><stop offset="0.4" style="stop-color:#fed052;stop-opacity:1"/><stop offset="0.5" style="stop-color:#f5bb53;stop-opacity:1"/><stop offset="0.6" style="stop-color:#f9cb76;stop-opacity:1"/><stop offset="0.7" style="stop-color:#fed571;stop-opacity:1"/><stop offset="0.8" style="stop-color:#f5c24e;stop-opacity:1"/><stop offset="0.9" style="stop-color:#e2ad55;stop-opacity:1"/><stop offset="1" style="stop-color:#fecf4c;stop-opacity:1"/></linearGradient><linearGradient id="_Linear16" x1="0" y1="0" x2="1" y2="0" gradientUnits="userSpaceOnUse" gradientTransform="matrix(2.39791,0,0,2.39791,0.00137359,34.192)"><stop offset="0" style="stop-color:#daa45a;stop-opacity:1"/><stop offset="0.1" style="stop-color:#f3c14e;stop-opacity:1"/><stop offset="0.2" style="stop-color:#fed469;stop-opacity:1"/><stop offset="0.3" style="stop-color:#fed77e;stop-opacity:1"/><stop offset="0.4" style="stop-color:#fed052;stop-opacity:1"/><stop offset="0.5" style="stop-color:#f5bb53;stop-opacity:1"/><stop offset="0.6" style="stop-color:#f9cb76;stop-opacity:1"/><stop offset="0.7" style="stop-color:#fed571;stop-opacity:1"/><stop offset="0.8" style="stop-color:#f5c24e;stop-opacity:1"/><stop offset="0.9" style="stop-color:#e2ad55;stop-opacity:1"/><stop offset="1" style="stop-color:#fecf4c;stop-opacity:1"/></linearGradient><linearGradient id="_Linear17" x1="0" y1="0" x2="1" y2="0" gradientUnits="userSpaceOnUse" gradientTransform="matrix(13.4764,0,0,13.4764,95.3244,16.969)"><stop offset="0" style="stop-color:#daa45a;stop-opacity:1"/><stop offset="0.1" style="stop-color:#f3c14e;stop-opacity:1"/><stop offset="0.2" style="stop-color:#fed469;stop-opacity:1"/><stop offset="0.3" style="stop-color:#fed77e;stop-opacity:1"/><stop offset="0.4" style="stop-color:#fed052;stop-opacity:1"/><stop offset="0.5" style="stop-color:#f5bb53;stop-opacity:1"/><stop offset="0.6" style="stop-color:#f9cb76;stop-opacity:1"/><stop offset="0.7" style="stop-color:#fed571;stop-opacity:1"/><stop offset="0.8" style="stop-color:#f5c24e;stop-opacity:1"/><stop offset="0.9" style="stop-color:#e2ad55;stop-opacity:1"/><stop offset="1" style="stop-color:#fecf4c;stop-opacity:1"/></linearGradient></defs></svg>