<?xml version="1.0" encoding="UTF-8" standalone="no"?><!DOCTYPE svg PUBLIC "-//W3C//DTD SVG 1.1//EN" "http://www.w3.org/Graphics/SVG/1.1/DTD/svg11.dtd"><svg width="100%" height="100%" viewBox="0 0 226 45" version="1.1" xmlns="http://www.w3.org/2000/svg" xmlns:xlink="http://www.w3.org/1999/xlink" xml:space="preserve" xmlns:serif="http://www.serif.com/" style="fill-rule:evenodd;clip-rule:evenodd;stroke-linejoin:round;stroke-miterlimit:1.41421;"><path d="M1.818,15.555c0.529,-1.167 1.459,-2.389 2.785,-3.327c1.313,-0.948 2.976,-1.612 4.707,-1.896c1.29,-0.213 2.615,-0.22 3.887,-0.092c-1.058,-0.003 -2.147,0.073 -3.23,0.271c-1.59,0.285 -3.148,0.856 -4.459,1.677c-1.316,0.822 -2.339,1.885 -3.032,2.921c-0.704,1.033 -1.054,2.046 -1.23,2.759c-0.064,0.292 -0.105,0.519 -0.131,0.707l-0.001,-0.051c0.007,-0.731 0.167,-1.802 0.704,-2.969Zm-1.168,0.221c0.118,-0.077 0.297,-0.25 0.578,-0.602c-0.134,0.287 -0.313,0.656 -0.437,0.964c-0.128,0.307 -0.209,0.548 -0.209,0.548c0,0 0.059,-0.032 0.168,-0.178c0.117,-0.145 0.283,-0.405 0.541,-0.834c-0.285,0.667 -0.49,1.531 -0.542,2.223c-0.058,0.694 0.014,1.202 0.014,1.202c0,0 -0.026,-0.44 0.047,-0.951c0.065,-0.511 0.222,-1.083 0.379,-1.353c-0.214,0.854 -0.203,1.595 -0.146,2.096l0.016,0.117l-0.001,0.007l0.002,-0.005c0.026,0.191 0.054,0.352 0.082,0.459c0.031,0.131 0.047,0.203 0.047,0.203c0,0 -0.012,-0.104 -0.037,-0.298c-0.017,-0.149 -0.031,-0.367 -0.034,-0.619c0.028,-0.13 0.061,-0.3 0.126,-0.513c0.128,-0.484 0.351,-1.157 0.725,-1.899c-0.06,0.289 -0.223,0.809 -0.321,1.272c-0.049,0.231 -0.094,0.444 -0.113,0.602c-0.025,0.158 -0.04,0.256 -0.04,0.256c0,0 0.088,-0.459 0.292,-1.048c0.201,-0.59 0.551,-1.292 0.889,-1.834c-0.159,0.417 -0.197,0.681 -0.196,0.841c-0.002,0.159 0.026,0.211 0.026,0.211c0,0 0.076,-0.194 0.174,-0.447c0.112,-0.249 0.268,-0.553 0.419,-0.77c-0.117,0.363 -0.109,0.572 -0.079,0.691c0.028,0.117 0.079,0.143 0.079,0.143c0,0 0.418,-0.766 0.831,-1.415c-0.001,0.048 -0.044,0.179 -0.086,0.295c-0.04,0.12 -0.076,0.226 -0.076,0.226c0,0 0.31,-0.508 0.804,-1.107c0.486,-0.605 1.185,-1.269 1.721,-1.734c-0.269,0.298 -0.161,0.38 -0.161,0.38c0,0 0.21,-0.311 0.628,-0.571c-0.547,0.523 -0.414,0.724 -0.414,0.724c0,0 0.751,-0.463 1.42,-0.842l-0.455,0.382c0,0 0.389,-0.193 0.984,-0.456c0.595,-0.263 1.405,-0.58 2.227,-0.893c-0.198,0.107 -0.172,0.176 -0.172,0.176c0,0 0.248,-0.149 0.579,-0.218c-0.688,0.308 -0.637,0.544 -0.637,0.544c0,0 0.849,-0.175 1.63,-0.335l-0.615,0.235c0,0 0.499,-0.085 1.243,-0.182c0.743,-0.093 1.737,-0.202 2.711,-0.289c0.895,-0.058 1.201,-0.183 1.416,-0.268c0.804,0.223 1.547,0.478 2.166,0.767c1.162,0.54 1.859,1.301 2.18,1.898c0.163,0.296 0.243,0.543 0.286,0.711c0.044,0.169 0.055,0.26 0.055,0.26c0.001,-0.032 -0.013,-0.368 -0.222,-0.828c-0.201,-0.458 -0.622,-1.021 -1.177,-1.454c-1.115,-0.885 -2.658,-1.281 -2.752,-1.346l-0.155,-0.088l0.04,-0.002c0.111,0.019 1.476,0.32 2.697,1.18c0.618,0.431 1.108,1.097 1.332,1.646c0.23,0.548 0.28,0.941 0.308,0.977c0,0 -0.021,-0.11 -0.061,-0.315c-0.05,-0.204 -0.123,-0.51 -0.299,-0.879c-0.17,-0.367 -0.452,-0.798 -0.863,-1.178c-0.406,-0.386 -0.927,-0.705 -1.487,-0.974c-0.558,-0.277 -1.194,-0.497 -1.876,-0.664c-0.167,-0.192 -0.426,-0.454 -1.428,-0.875c-1.099,-0.443 -2.324,-0.71 -3.273,-0.811c-0.949,-0.105 -1.611,-0.072 -1.611,-0.072c0,0 0.727,0.086 0.818,0.15c-0.971,-0.125 -2.13,0.039 -2.13,0.039c0,0 0.009,0.056 0.133,0.122c0.123,0.065 0.361,0.142 0.811,0.205c-0.41,0.013 -0.757,-0.041 -0.757,-0.041c0,0 -0.005,0.072 0.262,0.109c-1.067,-0.054 -2.17,0.134 -2.975,0.377c-0.807,0.242 -1.32,0.51 -1.32,0.51c0,0 0.632,-0.179 0.741,-0.154c-0.471,0.132 -0.961,0.351 -1.327,0.543c-0.368,0.191 -0.609,0.356 -0.609,0.356c0,0 0.032,0.048 0.172,0.054c0.139,0.007 0.387,-0.024 0.821,-0.15c-0.535,0.251 -0.97,0.371 -0.97,0.371c0,0 0.023,0.127 0.476,-0.017c-0.787,0.308 -1.809,0.973 -2.514,1.7c-0.361,0.352 -0.638,0.711 -0.836,0.97c-0.186,0.27 -0.298,0.434 -0.298,0.434c0,0 0.409,-0.428 0.517,-0.465c-0.658,0.742 -1.074,1.856 -1.074,1.856c0,0 0.053,0.018 0.172,-0.058Zm11.467,28.003c-0.712,-0.166 -1.723,-0.555 -2.744,-1.332c-1.024,-0.77 -2.016,-1.944 -2.643,-3.442c-0.64,-1.489 -0.927,-3.256 -0.828,-5.006c0.072,-1.307 0.354,-2.601 0.755,-3.815c-0.232,1.032 -0.395,2.112 -0.437,3.212c-0.068,1.613 0.151,3.259 0.667,4.717c0.517,1.463 1.332,2.692 2.192,3.594c0.856,0.912 1.768,1.473 2.426,1.801c0.271,0.125 0.485,0.215 0.662,0.281l-0.05,-0.01Zm0.226,0.047c-0.121,-0.057 -0.28,-0.125 -0.473,-0.235c-0.444,-0.23 -1.054,-0.595 -1.695,-1.121c0.267,0.121 0.74,0.394 1.171,0.59c0.215,0.098 0.413,0.189 0.564,0.241c0.148,0.059 0.24,0.095 0.24,0.095c0,0 -0.429,-0.185 -0.959,-0.513c-0.533,-0.325 -1.141,-0.819 -1.596,-1.266c0.371,0.246 0.621,0.34 0.777,0.374c0.155,0.036 0.212,0.02 0.212,0.02c0,0 -0.173,-0.116 -0.399,-0.267c-0.219,-0.163 -0.481,-0.382 -0.66,-0.576c0.328,0.193 0.533,0.231 0.656,0.227c0.121,-0.002 0.158,-0.045 0.158,-0.045c0,0 -0.658,-0.576 -1.2,-1.119c0.046,0.011 0.164,0.082 0.268,0.148c0.109,0.065 0.204,0.123 0.204,0.123c0,0 -0.428,-0.413 -0.906,-1.025c-0.484,-0.606 -0.981,-1.432 -1.318,-2.057c0.232,0.327 0.336,0.24 0.336,0.24c0,0 -0.258,-0.273 -0.421,-0.737c0.392,0.647 0.617,0.561 0.617,0.561c0,0 -0.288,-0.834 -0.513,-1.569l0.274,0.527c0,0 -0.104,-0.422 -0.231,-1.059c-0.128,-0.638 -0.261,-1.498 -0.388,-2.369c0.061,0.218 0.135,0.206 0.135,0.206c0,0 -0.093,-0.274 -0.088,-0.612c0.152,0.739 0.392,0.739 0.392,0.739c0,0 0.015,-0.865 0.027,-1.663l0.097,0.652c0,0 0.025,-0.505 0.093,-1.252c0.07,-0.746 0.18,-1.74 0.307,-2.71c0.138,-0.886 0.081,-1.212 0.046,-1.44c0.393,-0.737 0.803,-1.407 1.219,-1.948c0.78,-1.018 1.675,-1.531 2.326,-1.715c0.325,-0.096 0.583,-0.119 0.756,-0.125c0.175,-0.007 0.266,0.003 0.266,0.003c-0.031,-0.009 -0.361,-0.067 -0.855,0.036c-0.491,0.098 -1.133,0.385 -1.676,0.834c-1.106,0.895 -1.828,2.316 -1.913,2.393l-0.119,0.132l0.007,-0.038c0.043,-0.105 0.633,-1.373 1.739,-2.376c0.554,-0.511 1.311,-0.844 1.895,-0.944c0.586,-0.105 0.98,-0.069 1.02,-0.089c0,0 -0.111,-0.003 -0.32,-0.008c-0.21,0.005 -0.524,0.009 -0.922,0.101c-0.396,0.087 -0.878,0.267 -1.338,0.586c-0.466,0.314 -0.89,0.752 -1.274,1.24c-0.391,0.485 -0.745,1.057 -1.056,1.687c-0.224,0.121 -0.537,0.317 -1.164,1.203c-0.671,0.977 -1.199,2.114 -1.503,3.018c-0.31,0.904 -0.421,1.558 -0.421,1.558l0.324,-0.766c-0.333,0.92 -0.425,2.087 -0.425,2.087c0,0 0.057,0.004 0.149,-0.102c0.089,-0.107 0.216,-0.322 0.375,-0.748c-0.075,0.404 -0.204,0.729 -0.204,0.729c0,0 0.069,0.022 0.164,-0.231c-0.285,1.029 -0.342,2.147 -0.279,2.985c0.061,0.841 0.21,1.4 0.21,1.4c0,0 -0.037,-0.656 0.012,-0.757c0.026,0.488 0.133,1.014 0.242,1.414c0.106,0.4 0.214,0.672 0.214,0.672c0,0 0.053,-0.021 0.091,-0.157c0.036,-0.133 0.06,-0.382 0.031,-0.834c0.128,0.577 0.152,1.028 0.152,1.028c0,0 0.129,0.005 0.086,-0.469c0.13,0.835 0.556,1.978 1.113,2.824c0.265,0.429 0.555,0.778 0.766,1.027c0.222,0.24 0.358,0.385 0.358,0.385c0,0 -0.328,-0.492 -0.342,-0.606c0.582,0.804 1.578,1.452 1.578,1.452c0,0 0.031,-0.048 -0.019,-0.181c-0.048,-0.131 -0.178,-0.344 -0.462,-0.695c0.252,0.194 0.573,0.448 0.847,0.636c0.272,0.192 0.489,0.323 0.489,0.323c0,0 -0.018,-0.063 -0.138,-0.202c-0.116,-0.146 -0.332,-0.364 -0.695,-0.709c0.588,0.423 1.387,0.811 2.051,1.012c0.665,0.208 1.177,0.248 1.177,0.248c0,0 -0.435,-0.072 -0.919,-0.253c-0.484,-0.175 -1.008,-0.451 -1.238,-0.664c0.788,0.393 1.513,0.546 2.015,0.598l0.118,0.009l0.007,0.003l-0.005,-0.003c0.191,0.017 0.355,0.025 0.466,0.02c0.135,-0.001 0.207,-0.002 0.207,-0.002c0,0 -0.104,-0.01 -0.299,-0.029c-0.148,-0.015 -0.365,-0.049 -0.611,-0.1Zm33.846,-40.108c0.18,0.133 0.329,0.271 0.492,0.408c-0.248,-0.202 -0.506,-0.395 -0.727,-0.561l0.235,0.153Zm-22.914,8.781c0.005,-0.253 0.043,-0.622 0.115,-1.089c0.15,-0.93 0.517,-2.26 1.341,-3.68c0.813,-1.418 2.098,-2.908 3.811,-4.044c1.707,-1.153 3.825,-1.938 6.016,-2.288c2.193,-0.341 4.464,-0.279 6.5,0.138c1.021,0.204 1.979,0.508 2.846,0.882c-1.3,-0.426 -2.843,-0.667 -4.469,-0.664c-1.784,-0.005 -3.643,0.247 -5.469,0.565c-1.831,0.323 -3.707,0.802 -5.316,1.692c-1.622,0.881 -2.85,2.182 -3.612,3.433c-0.78,1.253 -1.137,2.451 -1.304,3.293c-0.084,0.422 -0.128,0.759 -0.144,0.989c-0.019,0.231 -0.03,0.354 -0.03,0.354c0.023,-0.042 0.05,-0.483 0.166,-1.108c0.123,-0.624 0.349,-1.429 0.696,-2.185c0.663,-1.539 1.835,-2.769 1.941,-2.834c0.227,-0.179 0.353,-0.169 0.61,-0.236c0.253,-0.063 0.628,-0.223 1.408,-0.573c1.052,-0.46 2.168,-0.773 3.032,-0.966c0.863,-0.191 1.464,-0.293 1.464,-0.293c0,0 -0.678,0.037 -0.778,0.005c0.937,-0.138 1.976,-0.293 1.976,-0.293c0,0 -0.036,-0.232 -0.924,-0.268c0.398,-0.06 0.735,-0.012 0.735,-0.012c0,0 0.004,-0.073 -0.26,-0.1c1.041,-0.01 2.098,-0.067 2.887,-0.112c0.792,-0.043 1.319,-0.071 1.319,-0.071c0,0 -0.608,-0.065 -0.703,-0.112c0.948,0.006 2.001,0.013 2.001,0.013c0,0 0.006,-0.236 -0.868,-0.409c0.584,0.013 0.993,0.166 0.993,0.166c0,0 0.056,-0.124 -0.4,-0.24c0.829,0.123 1.969,0.298 2.869,0.529c0.902,0.227 1.567,0.49 1.567,0.49l-0.534,-0.35c0.859,0.315 1.816,0.752 1.816,0.752c0,0 0.113,-0.221 -0.626,-0.719c0.296,0.103 0.664,0.271 0.946,0.432c0.286,0.155 0.49,0.292 0.49,0.292c0,0 -0.015,-0.063 -0.135,-0.201c-0.121,-0.137 -0.348,-0.354 -0.799,-0.617c0.702,0.275 1.526,0.69 2.133,1.107c0.365,0.243 0.641,0.465 0.816,0.613c0.639,0.647 1.118,1.285 1.423,1.803c0.244,0.401 0.394,0.737 0.497,0.965c0.094,0.23 0.144,0.354 0.144,0.354c0,0 -0.086,-0.358 -0.348,-0.947c-0.263,-0.585 -0.726,-1.402 -1.493,-2.212c0.322,0.219 0.848,0.753 1.228,1.28c0.386,0.523 0.637,1.019 0.637,1.019c0,0 -0.248,-0.599 -0.747,-1.318c-0.482,-0.73 -1.25,-1.54 -1.965,-2.101c0.534,0.327 0.857,0.527 1.059,0.628c0.203,0.099 0.273,0.11 0.273,0.11c0,0 -0.233,-0.214 -0.553,-0.477c-0.316,-0.266 -0.732,-0.564 -1.053,-0.796c0.506,0.236 0.786,0.337 0.948,0.363c0.161,0.026 0.197,-0.014 0.197,-0.014c0,0 -0.271,-0.241 -0.692,-0.534c-0.42,-0.296 -0.996,-0.634 -1.555,-0.867c0.131,-0.004 0.81,0.242 0.81,0.242c0,0 -0.854,-0.507 -2.03,-0.898c-1.172,-0.408 -2.649,-0.652 -3.699,-0.653c0.585,-0.031 0.54,-0.156 0.54,-0.156c0,0 -0.545,0.047 -1.28,0.003c0.557,-0.04 0.848,-0.098 0.999,-0.157c0.151,-0.059 0.161,-0.115 0.161,-0.115c0,0 -0.352,-0.062 -0.857,-0.111c-0.505,-0.049 -1.161,-0.079 -1.762,-0.039c0.116,-0.06 0.915,-0.116 0.915,-0.116c0,0 -0.702,-0.068 -1.737,-0.018c-1.032,0.042 -2.396,0.245 -3.646,0.679c0.305,-0.131 0.273,-0.197 0.273,-0.197c0,0 -0.391,0.172 -0.884,0.313c0.513,-0.229 0.77,-0.379 0.892,-0.487c0.123,-0.107 0.113,-0.163 0.113,-0.163c0,0 -1.422,0.255 -2.531,0.76c0.046,-0.046 0.272,-0.165 0.489,-0.272c0.224,-0.098 0.43,-0.186 0.43,-0.186c0,0 -0.198,0.053 -0.533,0.168c-0.335,0.115 -0.806,0.291 -1.347,0.543c-1.082,0.498 -2.426,1.343 -3.456,2.412c-0.758,0.803 -0.956,1.258 -1.063,1.541c-0.104,0.283 -0.097,0.417 -0.275,0.693c-0.086,0.109 -1.326,1.593 -1.981,3.357c-0.341,0.871 -0.545,1.781 -0.628,2.478c-0.083,0.698 -0.055,1.182 -0.053,1.228c0,0 0.006,-0.134 0.017,-0.386Zm186.853,19.17c-1.174,2.92 -3.357,5.523 -6.096,7.506c-2.738,2.001 -6.032,3.371 -9.542,4.079c-3.51,0.736 -7.211,0.866 -10.94,0.703c-7.474,-0.366 -15.12,-1.61 -22.501,-3.728c-2.518,-0.711 -4.996,-1.535 -7.433,-2.444c0.856,-0.457 1.643,-0.963 2.336,-1.506c0.668,0.229 1.229,0.34 1.453,0.23c2.582,1.045 6.288,2.346 11.404,3.379c2.557,0.512 5.467,0.942 8.748,1.164c3.277,0.211 6.933,0.264 10.927,-0.179c2.101,-0.251 4.314,-0.701 6.469,-1.541c2.148,-0.837 4.236,-2.084 5.939,-3.782c1.718,-1.678 2.971,-3.858 3.481,-6.2c0.52,-2.333 0.383,-4.785 -0.379,-6.946c-0.363,-1.054 -0.872,-2.025 -1.471,-2.916c-0.114,-1.184 -0.367,-2.401 -0.776,-3.606c1.304,0.027 2.664,0.339 3.945,0.972c1.131,0.542 2.183,1.352 3.041,2.373c0.865,1.023 1.503,2.282 1.923,3.638c0.818,2.726 0.669,5.907 -0.528,8.804Zm-9.764,-14.727c-0.291,-0.278 -0.59,-0.534 -0.89,-0.788c0.584,-0.162 1.201,-0.26 1.838,-0.279c0.334,0.965 0.564,1.941 0.699,2.898c-0.509,-0.664 -1.066,-1.276 -1.647,-1.831Zm-1.168,-1.034c-1.188,-0.975 -2.428,-1.774 -3.621,-2.451c-1.595,-0.905 -3.121,-1.601 -4.524,-2.023c-1.402,-0.429 -2.674,-0.573 -3.689,-0.58c-0.614,0.172 -1.393,0.394 -2.227,0.785c-0.83,0.391 -1.727,0.96 -2.443,1.804c-0.71,0.838 -1.26,1.93 -1.394,3.122c-0.067,0.593 -0.029,1.205 0.132,1.788c0.138,0.482 0.389,0.922 0.689,1.322c-0.22,0.005 -0.443,-0.006 -0.671,-0.04c-0.92,-0.13 -1.872,-0.589 -2.664,-1.336c-0.789,-0.743 -1.424,-1.775 -1.679,-2.95c-0.256,-1.176 -0.135,-2.496 0.349,-3.727c0.475,-1.239 1.299,-2.382 2.387,-3.275c1.089,-0.895 2.415,-1.551 3.835,-1.954c2.851,-0.8 6.033,-0.583 8.847,0.517c2.823,1.083 5.29,3.001 6.937,5.34c0.739,1.037 1.303,2.151 1.725,3.287c-0.694,0.04 -1.362,0.167 -1.989,0.371Zm-50.485,23.23c0.011,-0.238 0.022,-0.48 0.035,-0.747c0.022,-0.367 0.02,-0.771 0.004,-1.198c0.939,0.395 1.886,0.777 2.841,1.146c-0.904,0.343 -1.868,0.618 -2.88,0.799Zm-2.123,0.24c-2.001,0.076 -4.076,-0.208 -6.095,-0.746c-0.351,-0.095 -0.697,-0.205 -1.044,-0.313c1.312,-0.879 2.241,-2.372 2.454,-3.914c0.019,-0.122 0.012,-0.24 0.024,-0.361c2.006,1.015 4.067,1.97 6.164,2.869c0.06,0.529 0.099,1.031 0.099,1.474c0.005,0.301 0.01,0.58 0.015,0.844c-0.53,0.076 -1.068,0.13 -1.617,0.147Zm-7.6,-1.197c-1.836,-0.6 -3.61,-1.376 -5.313,-2.224c-0.275,-1.074 0.083,-1.71 -0.014,-1.783c-0.042,-0.045 -0.112,-0.015 -0.207,0.084c-0.097,0.099 -0.22,0.265 -0.304,0.503c-0.095,0.23 -0.153,0.528 -0.162,0.85c-1.283,-0.662 -2.524,-1.359 -3.71,-2.055c-3.561,-2.09 -7.381,-4.644 -11.461,-6.913c-0.146,-0.081 -0.296,-0.158 -0.442,-0.238c0.419,-0.232 0.85,-0.461 1.31,-0.674c1.452,-0.684 3.096,-1.227 4.789,-1.577c5.179,2.515 10.408,5.613 15.926,8.567c0.715,0.386 1.441,0.763 2.169,1.135c-0.096,1.931 -1.219,3.539 -2.581,4.325Zm-1.616,0.524c-1.014,0.109 -1.898,-0.349 -2.519,-0.878c-0.562,-0.509 -0.92,-1.087 -1.099,-1.614c1.543,0.772 3.206,1.502 4.962,2.107c-0.441,0.215 -0.897,0.359 -1.344,0.385Zm-20.437,-12.537c-1.26,-0.676 -2.547,-1.32 -3.857,-1.9c0.958,-0.414 1.931,-0.803 2.922,-1.146c1.034,-0.359 2.09,-0.663 3.156,-0.916c0.405,0.169 0.809,0.329 1.217,0.51c0.865,0.375 1.731,0.777 2.598,1.191c-1.849,0.387 -3.59,1.006 -5.084,1.743c-0.336,0.167 -0.641,0.344 -0.952,0.518Zm-3.689,2.627c-0.135,0.125 -0.259,0.244 -0.376,0.358c-0.117,-0.114 -0.241,-0.233 -0.376,-0.358c-0.823,-0.758 -2.022,-1.675 -3.512,-2.531c1.265,-0.675 2.559,-1.317 3.888,-1.899c1.329,0.582 2.622,1.224 3.888,1.899c-1.49,0.856 -2.689,1.773 -3.512,2.531Zm-5.393,-3.145c-1.493,-0.737 -3.235,-1.356 -5.084,-1.743c0.867,-0.414 1.733,-0.816 2.598,-1.191c0.408,-0.181 0.812,-0.341 1.217,-0.51c1.066,0.253 2.122,0.557 3.156,0.916c0.992,0.343 1.963,0.732 2.922,1.146c-1.31,0.58 -2.596,1.224 -3.857,1.9c-0.311,-0.174 -0.615,-0.351 -0.952,-0.518Zm0.07,0.993c-4.08,2.269 -7.9,4.823 -11.462,6.913c-1.185,0.696 -2.426,1.393 -3.709,2.055c-0.008,-0.322 -0.067,-0.62 -0.162,-0.85c-0.084,-0.238 -0.207,-0.404 -0.304,-0.503c-0.094,-0.099 -0.165,-0.129 -0.207,-0.084c-0.097,0.073 0.261,0.709 -0.014,1.783c-1.703,0.848 -3.477,1.624 -5.314,2.224c-1.361,-0.786 -2.484,-2.394 -2.58,-4.325c0.729,-0.372 1.454,-0.749 2.169,-1.135c5.519,-2.954 10.746,-6.052 15.925,-8.567c1.693,0.35 3.339,0.893 4.79,1.577c0.46,0.213 0.891,0.442 1.311,0.674c-0.147,0.08 -0.297,0.157 -0.443,0.238Zm-17.036,11.184c-0.621,0.529 -1.505,0.987 -2.518,0.878c-0.449,-0.026 -0.904,-0.17 -1.345,-0.385c1.756,-0.605 3.419,-1.335 4.962,-2.107c-0.18,0.527 -0.537,1.105 -1.099,1.614Zm-5.64,0.805c-2.019,0.538 -4.094,0.822 -6.095,0.746c-0.549,-0.017 -1.087,-0.071 -1.617,-0.147c0.004,-0.264 0.009,-0.543 0.015,-0.844c0,-0.443 0.039,-0.945 0.1,-1.474c2.096,-0.899 4.157,-1.854 6.163,-2.869c0.012,0.121 0.005,0.239 0.024,0.361c0.213,1.542 1.142,3.035 2.454,3.914c-0.347,0.108 -0.693,0.218 -1.044,0.313Zm-6.908,-4.98c0.586,-1.898 1.613,-4.123 3.388,-6.43c1.064,-1.39 2.425,-2.82 4.122,-4.12l0.124,0.035c1.457,0.382 2.901,0.536 4.293,0.593c-0.58,0.318 -1.125,0.647 -1.616,0.98c-1.181,0.796 -2.068,1.644 -2.769,2.319c-0.395,0.749 -0.999,1.742 -1.465,3.006c-0.284,0.756 -0.506,1.625 -0.599,2.538c-1.933,1.007 -3.909,1.964 -5.926,2.86c0.117,-0.562 0.256,-1.147 0.448,-1.781Zm21.581,-9.853c-4.663,2.375 -9.341,5.142 -14.199,7.767c-0.488,0.267 -0.986,0.524 -1.48,0.783c0.398,-2.483 2.055,-4.987 4.322,-6.848c0.795,-0.663 1.681,-1.239 2.622,-1.743c0.593,0.008 1.174,0.005 1.739,0c2.059,-0.018 4.516,-0.172 6.996,0.041Zm-6.975,-0.259c-0.438,0.004 -0.893,0.005 -1.353,0.003c2.085,-1.049 4.447,-1.723 6.887,-1.977c1.894,-0.194 3.828,-0.113 5.747,0.176c-1.278,0.569 -2.553,1.176 -3.829,1.818c-2.493,-0.228 -5.056,-0.048 -7.452,-0.02Zm-3.337,-2.768c3.572,-1.727 8.188,-2.723 13.448,-2.466c2.322,0.108 4.77,0.461 7.305,1.041c-1.821,0.598 -3.668,1.295 -5.539,2.123c-0.097,0.042 -0.193,0.089 -0.289,0.132c-2.056,-0.35 -4.086,-0.454 -5.999,-0.297c-2.039,0.174 -3.935,0.619 -5.606,1.219c-0.824,0.295 -1.588,0.637 -2.292,1.002c-1.485,-0.043 -3.04,-0.187 -4.583,-0.583c1.053,-0.788 2.234,-1.525 3.555,-2.171Zm29.268,1.317c-2.022,0.509 -4.035,1.231 -6.006,2.092c-1.971,-0.861 -3.984,-1.583 -6.006,-2.092c2.041,-0.84 4.047,-1.539 6.006,-2.097c1.959,0.558 3.965,1.257 6.006,2.097Zm3.808,-3.783c5.259,-0.257 9.875,0.739 13.448,2.466c1.321,0.646 2.502,1.383 3.555,2.171c-1.543,0.396 -3.098,0.54 -4.583,0.583c-0.705,-0.365 -1.468,-0.707 -2.292,-1.002c-1.671,-0.6 -3.567,-1.045 -5.605,-1.219c-1.914,-0.157 -3.944,-0.053 -6,0.297c-0.096,-0.043 -0.192,-0.09 -0.289,-0.132c-1.871,-0.828 -3.718,-1.525 -5.538,-2.123c2.534,-0.58 4.982,-0.933 7.304,-1.041Zm2.659,5.254c-1.276,-0.642 -2.551,-1.249 -3.828,-1.818c1.918,-0.289 3.852,-0.37 5.746,-0.176c2.44,0.254 4.802,0.928 6.886,1.977c-0.46,0.002 -0.914,0.001 -1.352,-0.003c-2.396,-0.028 -4.959,-0.208 -7.452,0.02Zm7.472,0.198c0.566,0.005 1.147,0.008 1.74,0c0.941,0.504 1.828,1.08 2.622,1.743c2.267,1.861 3.924,4.365 4.323,6.848c-0.495,-0.259 -0.992,-0.516 -1.482,-0.783c-4.858,-2.625 -9.535,-5.392 -14.199,-7.767c2.481,-0.213 4.938,-0.059 6.996,-0.041Zm7.076,-0.656c1.697,1.3 3.058,2.73 4.122,4.12c1.775,2.307 2.802,4.532 3.387,6.43c0.193,0.634 0.332,1.219 0.449,1.781c-2.017,-0.896 -3.993,-1.854 -5.926,-2.86c-0.092,-0.913 -0.315,-1.782 -0.599,-2.538c-0.467,-1.264 -1.07,-2.257 -1.466,-3.006c-0.7,-0.675 -1.587,-1.523 -2.768,-2.319c-0.491,-0.333 -1.036,-0.662 -1.616,-0.98c1.391,-0.057 2.836,-0.211 4.293,-0.593l0.124,-0.035Zm-65.742,15.237c0.955,-0.369 1.902,-0.751 2.842,-1.146c-0.017,0.427 -0.019,0.831 0.003,1.198c0.013,0.267 0.024,0.509 0.035,0.747c-1.012,-0.181 -1.976,-0.456 -2.88,-0.799Zm-9.457,1.89c-7.382,2.118 -15.028,3.362 -22.502,3.728c-3.729,0.163 -7.43,0.033 -10.94,-0.703c-3.51,-0.708 -6.804,-2.078 -9.543,-4.079c-2.738,-1.983 -4.921,-4.586 -6.095,-7.506c-1.197,-2.897 -1.346,-6.078 -0.528,-8.804c0.419,-1.356 1.058,-2.615 1.923,-3.638c0.858,-1.021 1.91,-1.831 3.041,-2.373c1.281,-0.633 2.641,-0.945 3.945,-0.972c-0.409,1.205 -0.662,2.422 -0.776,3.606c-0.599,0.891 -1.108,1.862 -1.471,2.916c-0.762,2.161 -0.899,4.613 -0.379,6.946c0.51,2.342 1.763,4.522 3.48,6.2c1.704,1.698 3.791,2.945 5.94,3.782c2.156,0.84 4.368,1.29 6.469,1.541c3.994,0.443 7.651,0.39 10.927,0.179c3.281,-0.222 6.191,-0.652 8.748,-1.164c5.116,-1.033 8.822,-2.334 11.403,-3.379c0.226,0.11 0.786,-0.001 1.454,-0.23c0.693,0.543 1.48,1.049 2.336,1.506c-2.437,0.909 -4.915,1.733 -7.432,2.444Zm-40.265,-24.354c0.639,0.019 1.255,0.117 1.839,0.279c-0.3,0.254 -0.6,0.51 -0.89,0.788c-0.581,0.555 -1.138,1.167 -1.647,1.831c0.136,-0.957 0.365,-1.933 0.698,-2.898Zm1.853,-3.625c1.647,-2.339 4.114,-4.257 6.937,-5.34c2.814,-1.1 5.995,-1.317 8.847,-0.517c1.42,0.403 2.746,1.059 3.835,1.954c1.088,0.893 1.912,2.036 2.387,3.275c0.484,1.231 0.605,2.551 0.349,3.727c-0.255,1.175 -0.89,2.207 -1.68,2.95c-0.791,0.747 -1.743,1.206 -2.663,1.336c-0.228,0.034 -0.452,0.045 -0.672,0.04c0.301,-0.4 0.552,-0.84 0.691,-1.322c0.16,-0.583 0.197,-1.195 0.131,-1.788c-0.134,-1.192 -0.684,-2.284 -1.394,-3.122c-0.717,-0.844 -1.613,-1.413 -2.442,-1.804c-0.835,-0.391 -1.613,-0.613 -2.228,-0.785c-1.015,0.007 -2.287,0.151 -3.688,0.58c-1.404,0.422 -2.93,1.118 -4.525,2.023c-1.193,0.677 -2.433,1.476 -3.621,2.451c-0.628,-0.204 -1.295,-0.331 -1.989,-0.371c0.423,-1.136 0.985,-2.25 1.725,-3.287Zm182.817,6.672c-0.921,-1.067 -2.036,-1.896 -3.223,-2.445c-1.389,-0.66 -2.859,-0.966 -4.256,-0.953c-0.067,-0.183 -0.125,-0.366 -0.199,-0.548c-0.647,-1.596 -1.633,-3.105 -2.852,-4.412c-2.443,-2.617 -5.874,-4.359 -9.263,-4.812c-3.393,-0.494 -6.696,0.276 -8.985,1.751c-1.15,0.733 -2.043,1.631 -2.677,2.528c-0.636,0.895 -1.032,1.77 -1.299,2.488c0.016,0.96 0.004,2.462 0.708,3.968c0.681,1.482 2.086,2.929 3.845,3.383c0.496,0.138 0.995,0.169 1.481,0.134c0.777,0.863 1.891,1.399 2.978,1.405c1.141,0.033 2.126,-0.634 2.637,-1.406c0.537,-0.773 0.697,-1.619 0.646,-2.253c-0.067,-0.64 -0.309,-1.063 -0.477,-1.228c-0.151,-0.166 -0.187,-0.158 -0.131,-0.01c0.054,0.148 0.221,0.435 0.294,0.907c0.068,0.465 0.034,1.122 -0.291,1.82c-0.309,0.688 -0.955,1.438 -1.903,1.711c-0.951,0.273 -2.177,0.006 -3.124,-0.805l-0.181,-0.19c1.061,-0.18 2.012,-0.701 2.624,-1.313c1.025,-0.973 1.238,-2.08 1.195,-2.418c-0.01,-0.169 -0.044,-0.185 -0.094,-0.074c-0.052,0.111 -0.11,0.354 -0.248,0.69c-0.268,0.653 -0.949,1.739 -2.369,2.408c-0.418,0.19 -0.899,0.327 -1.411,0.387c-0.257,-0.305 -0.489,-0.64 -0.647,-1.023c-0.239,-0.61 -0.326,-1.321 -0.234,-2.033c0.176,-1.429 1.038,-2.884 2.393,-3.772c1.353,-0.911 3.135,-1.298 4.921,-1.168c1.801,0.125 3.613,0.758 5.362,1.611c1.562,0.763 3.088,1.682 4.49,2.785c-2.077,0.763 -3.449,2.421 -4.063,4.002c-0.65,1.597 -0.727,3.134 -0.499,4.306c0.225,1.181 0.681,2.016 1.058,2.51c0.382,0.492 0.626,0.71 0.626,0.71c0,0 -0.048,-0.066 -0.149,-0.188c-0.093,-0.128 -0.27,-0.289 -0.433,-0.553c-0.358,-0.501 -0.784,-1.336 -0.978,-2.5c-0.198,-1.154 -0.092,-2.658 0.569,-4.202c0.634,-1.542 1.989,-3.113 4.007,-3.808l0.157,-0.047l0.223,0.174c1.035,0.87 1.973,1.873 2.759,2.983c0.012,0.124 0.03,0.25 0.039,0.373c0.092,1.195 0.066,2.389 -0.077,3.551c-0.155,1.162 -0.42,2.287 -0.779,3.357c-0.725,2.138 -1.883,4 -3.209,5.494c-2.678,3.011 -5.869,4.477 -7.947,5.073c-2.529,0.714 -4.345,0.603 -4.357,1.011c-0.01,0.14 0.977,0.274 2.013,0.141c0.517,-0.057 1.04,-0.187 1.447,-0.333c0.404,-0.165 0.694,-0.347 0.755,-0.529c1.979,-0.576 4.79,-1.711 7.616,-4.414c1.383,-1.361 2.739,-3.13 3.699,-5.388c0.898,-2.158 1.445,-4.75 1.291,-7.589c0.185,0.302 0.373,0.602 0.532,0.921c0.907,1.795 1.325,3.835 1.252,5.849c-0.067,2.015 -0.64,4 -1.644,5.698c-1.006,1.706 -2.419,3.128 -3.993,4.232c-3.167,2.242 -6.882,3.165 -10.25,3.568c-6.516,0.69 -12.912,0.311 -18.264,-0.6c-5.364,-0.917 -9.71,-2.326 -12.443,-3.438c-0.459,-0.187 -0.89,-0.371 -1.302,-0.55c1.049,-0.891 1.895,-1.821 2.527,-2.673c0.746,-0.984 1.185,-1.883 1.484,-2.496c0.258,-0.634 0.377,-0.992 0.335,-1.014c-0.1,-0.056 -0.519,1.203 -1.817,2.979c-0.671,0.943 -1.635,2.025 -2.882,3.05c-2.31,-1.017 -3.768,-1.781 -3.942,-1.504c-0.079,0.122 1.003,0.845 2.237,1.442c0.382,0.188 0.775,0.358 1.151,0.502c-0.707,0.534 -1.496,1.039 -2.368,1.493c-1.545,-0.584 -3.067,-1.209 -4.572,-1.864c-0.098,-0.719 -0.237,-1.487 -0.46,-2.331c-0.537,-2.004 -1.54,-4.36 -3.34,-6.814c-0.959,-1.313 -2.169,-2.659 -3.656,-3.921c1.906,-0.714 3.693,-1.883 5.159,-3.362c1.812,-1.837 3.244,-4.118 3.848,-6.643c0.624,-2.512 0.19,-5.262 -1.218,-7.268c-0.692,-1.001 -1.628,-1.826 -2.684,-2.309c-1.048,-0.486 -2.166,-0.691 -3.217,-0.614c-1.053,0.062 -2.036,0.413 -2.814,0.948c-0.783,0.549 -1.328,1.272 -1.653,1.984c-0.666,1.443 -0.536,2.79 -0.242,3.597c0.318,0.819 0.72,1.137 0.806,1.104c0.128,-0.055 0.145,-0.288 0.107,-0.561c-0.016,-0.29 -0.078,-0.629 -0.103,-0.976c-0.088,-0.674 -0.091,-1.382 -0.583,-1.475c0.101,-0.867 0.468,-1.848 1.165,-2.638c0.699,-0.791 1.735,-1.303 2.766,-1.455c1.034,-0.153 2.05,0.022 2.824,0.376c0.786,0.342 1.317,0.863 1.567,1.311c1.038,0.457 2.464,1.901 2.97,4.194c0.261,1.131 0.268,2.437 -0.013,3.762c-0.286,1.323 -0.84,2.664 -1.621,3.911c-1.545,2.498 -3.982,4.696 -6.86,5.827c-0.128,0.052 -0.259,0.089 -0.388,0.135c-1.24,-1.031 -2.665,-2.003 -4.323,-2.839c-3.747,-1.873 -8.566,-2.948 -14.025,-2.712c-3.081,0.125 -6.36,0.663 -9.758,1.596c-3.399,-0.933 -6.677,-1.471 -9.758,-1.596c-5.459,-0.236 -10.278,0.839 -14.025,2.712c-1.658,0.836 -3.083,1.808 -4.324,2.839c-0.129,-0.046 -0.259,-0.083 -0.387,-0.135c-2.878,-1.131 -5.315,-3.329 -6.86,-5.827c-0.781,-1.247 -1.336,-2.588 -1.621,-3.911c-0.281,-1.325 -0.274,-2.631 -0.013,-3.762c0.505,-2.293 1.932,-3.737 2.97,-4.194c0.25,-0.448 0.781,-0.969 1.567,-1.311c0.774,-0.354 1.79,-0.529 2.825,-0.376c1.03,0.152 2.066,0.664 2.764,1.455c0.698,0.79 1.065,1.771 1.166,2.638c-0.492,0.093 -0.495,0.801 -0.584,1.475c-0.024,0.347 -0.086,0.686 -0.102,0.976c-0.038,0.273 -0.021,0.506 0.107,0.561c0.086,0.033 0.488,-0.285 0.807,-1.104c0.293,-0.807 0.423,-2.154 -0.242,-3.597c-0.327,-0.712 -0.871,-1.435 -1.654,-1.984c-0.778,-0.535 -1.761,-0.886 -2.813,-0.948c-1.052,-0.077 -2.17,0.128 -3.218,0.614c-1.056,0.483 -1.992,1.308 -2.684,2.309c-1.409,2.006 -1.842,4.756 -1.218,7.268c0.604,2.525 2.036,4.806 3.848,6.643c1.466,1.479 3.252,2.648 5.159,3.362c-1.488,1.262 -2.697,2.608 -3.656,3.921c-1.8,2.454 -2.804,4.81 -3.34,6.814c-0.223,0.844 -0.362,1.612 -0.46,2.331c-1.505,0.655 -3.027,1.28 -4.572,1.864c-0.872,-0.454 -1.661,-0.959 -2.368,-1.493c0.376,-0.144 0.769,-0.314 1.15,-0.502c1.235,-0.597 2.318,-1.32 2.238,-1.442c-0.174,-0.277 -1.632,0.487 -3.943,1.504c-1.246,-1.025 -2.211,-2.107 -2.882,-3.05c-1.297,-1.776 -1.716,-3.035 -1.816,-2.979c-0.042,0.022 0.077,0.38 0.336,1.014c0.298,0.613 0.736,1.512 1.483,2.496c0.632,0.852 1.478,1.782 2.527,2.673c-0.411,0.179 -0.842,0.363 -1.302,0.55c-2.733,1.112 -7.079,2.521 -12.442,3.438c-5.353,0.911 -11.748,1.29 -18.264,0.6c-3.369,-0.403 -7.084,-1.326 -10.25,-3.568c-1.575,-1.104 -2.988,-2.526 -3.993,-4.232c-1.005,-1.698 -1.577,-3.683 -1.645,-5.698c-0.073,-2.014 0.346,-4.054 1.252,-5.849c0.158,-0.319 0.347,-0.619 0.532,-0.921c-0.155,2.839 0.394,5.431 1.291,7.589c0.959,2.258 2.317,4.027 3.699,5.388c2.826,2.703 5.637,3.838 7.616,4.414c0.061,0.182 0.351,0.364 0.755,0.529c0.407,0.146 0.93,0.276 1.447,0.333c1.036,0.133 2.023,-0.001 2.013,-0.141c-0.012,-0.408 -1.827,-0.297 -4.357,-1.011c-2.078,-0.596 -5.268,-2.062 -7.946,-5.073c-1.327,-1.494 -2.485,-3.356 -3.21,-5.494c-0.358,-1.07 -0.624,-2.195 -0.779,-3.357c-0.143,-1.162 -0.168,-2.356 -0.077,-3.551c0.009,-0.123 0.027,-0.249 0.039,-0.373c0.786,-1.11 1.723,-2.113 2.759,-2.983l0.222,-0.174l0.157,0.047c2.019,0.695 3.373,2.266 4.007,3.808c0.662,1.544 0.769,3.048 0.57,4.202c-0.194,1.164 -0.621,1.999 -0.977,2.5c-0.164,0.264 -0.341,0.425 -0.434,0.553c-0.101,0.122 -0.149,0.188 -0.149,0.188c0,0 0.243,-0.218 0.626,-0.71c0.377,-0.494 0.833,-1.329 1.058,-2.51c0.228,-1.172 0.151,-2.709 -0.499,-4.306c-0.614,-1.581 -1.986,-3.239 -4.063,-4.002c1.402,-1.103 2.928,-2.022 4.49,-2.785c1.748,-0.853 3.561,-1.486 5.362,-1.611c1.786,-0.13 3.568,0.257 4.921,1.168c1.355,0.888 2.217,2.343 2.394,3.772c0.091,0.712 0.004,1.423 -0.234,2.033c-0.16,0.383 -0.391,0.718 -0.648,1.023c-0.512,-0.06 -0.993,-0.197 -1.41,-0.387c-1.421,-0.669 -2.102,-1.755 -2.37,-2.408c-0.139,-0.336 -0.196,-0.579 -0.248,-0.69c-0.051,-0.111 -0.084,-0.095 -0.094,0.074c-0.044,0.338 0.171,1.445 1.195,2.418c0.612,0.612 1.563,1.133 2.624,1.313l-0.18,0.19c-0.948,0.811 -2.174,1.078 -3.125,0.805c-0.948,-0.273 -1.595,-1.023 -1.903,-1.711c-0.326,-0.698 -0.359,-1.355 -0.291,-1.82c0.073,-0.472 0.241,-0.759 0.294,-0.907c0.056,-0.148 0.02,-0.156 -0.131,0.01c-0.167,0.165 -0.41,0.588 -0.476,1.228c-0.052,0.634 0.108,1.48 0.645,2.253c0.511,0.772 1.496,1.439 2.637,1.406c1.087,-0.006 2.201,-0.542 2.979,-1.405c0.485,0.035 0.984,0.004 1.479,-0.134c1.761,-0.454 3.165,-1.901 3.846,-3.383c0.704,-1.506 0.692,-3.008 0.708,-3.968c-0.267,-0.718 -0.663,-1.593 -1.3,-2.488c-0.633,-0.897 -1.526,-1.795 -2.676,-2.528c-2.289,-1.475 -5.592,-2.245 -8.985,-1.751c-3.389,0.453 -6.819,2.195 -9.263,4.812c-1.22,1.307 -2.205,2.816 -2.852,4.412c-0.074,0.182 -0.132,0.365 -0.199,0.548c-1.397,-0.013 -2.867,0.293 -4.256,0.953c-1.187,0.549 -2.302,1.378 -3.223,2.445c-0.922,1.062 -1.61,2.373 -2.067,3.787c-0.893,2.84 -0.781,6.154 0.433,9.201c0.601,1.522 1.449,2.983 2.511,4.31c1.066,1.326 2.329,2.524 3.733,3.574c2.809,2.102 6.215,3.558 9.813,4.321c3.601,0.795 7.38,0.961 11.163,0.832c7.563,-0.301 15.297,-1.492 22.783,-3.583c2.944,-0.808 5.844,-1.769 8.684,-2.848c0.268,0.11 0.53,0.225 0.808,0.324c0.812,0.275 1.673,0.476 2.554,0.619c0.027,0.215 0.067,0.421 0.095,0.611c0.086,0.476 0.139,0.879 0.226,1.21c0.404,1.31 0.543,1.609 0.577,1.6c0.035,-0.01 0.01,-0.356 -0.251,-1.665c-0.05,-0.331 -0.065,-0.73 -0.113,-1.196c-0.01,-0.152 -0.028,-0.315 -0.042,-0.483c0.946,0.123 1.914,0.173 2.886,0.125c2.059,-0.081 4.114,-0.525 6.051,-1.153l0.073,-0.025c0.627,0.364 1.327,0.579 2.019,0.595c0.769,0.034 1.491,-0.249 2.067,-0.626c0.11,0.17 0.473,0.092 0.89,-0.235c0.416,-0.317 0.855,-0.9 1.066,-1.577c0.09,-0.269 0.127,-0.547 0.139,-0.816c1.383,-0.72 2.672,-1.455 3.842,-2.138c2.907,-1.711 5.93,-3.688 9.138,-5.594c0.92,-0.545 1.864,-1.077 2.82,-1.597c1.436,0.809 2.619,1.689 3.491,2.413c0.215,0.179 0.406,0.343 0.587,0.498c-0.595,0.611 -0.877,1.013 -0.827,1.051c0.075,0.06 0.442,-0.279 1.078,-0.833c0.636,0.554 1.003,0.893 1.077,0.833c0.052,-0.038 -0.231,-0.44 -0.826,-1.051c0.181,-0.155 0.372,-0.319 0.587,-0.498c0.872,-0.724 2.055,-1.604 3.49,-2.413c0.957,0.52 1.901,1.052 2.821,1.597c3.208,1.906 6.232,3.883 9.138,5.594c1.17,0.683 2.459,1.418 3.842,2.138c0.012,0.269 0.049,0.547 0.139,0.816c0.211,0.677 0.65,1.26 1.067,1.577c0.416,0.327 0.778,0.405 0.89,0.235c0.575,0.377 1.296,0.66 2.066,0.626c0.692,-0.016 1.392,-0.231 2.019,-0.595l0.073,0.025c1.936,0.628 3.991,1.072 6.052,1.153c0.97,0.048 1.939,-0.002 2.884,-0.125c-0.013,0.168 -0.031,0.331 -0.041,0.483c-0.048,0.466 -0.062,0.865 -0.113,1.196c-0.261,1.309 -0.285,1.655 -0.251,1.665c0.034,0.009 0.173,-0.29 0.577,-1.6c0.087,-0.331 0.14,-0.734 0.226,-1.21c0.028,-0.19 0.068,-0.396 0.096,-0.611c0.88,-0.143 1.741,-0.344 2.553,-0.619c0.278,-0.099 0.54,-0.214 0.808,-0.324c2.84,1.079 5.74,2.04 8.684,2.848c7.486,2.091 15.22,3.282 22.784,3.583c3.782,0.129 7.561,-0.037 11.162,-0.832c3.598,-0.763 7.004,-2.219 9.813,-4.321c1.404,-1.05 2.667,-2.248 3.733,-3.574c1.061,-1.327 1.91,-2.788 2.51,-4.31c1.214,-3.047 1.328,-6.361 0.435,-9.201c-0.458,-1.414 -1.146,-2.725 -2.068,-3.787Zm-204.52,1.504c-1.066,1.213 -1.929,2.631 -2.442,4.09c-0.517,1.463 -0.655,2.932 -0.55,4.173c0.093,1.248 0.45,2.258 0.757,2.926c0.132,0.268 0.241,0.472 0.338,0.634l-0.033,-0.039c-0.45,-0.577 -0.992,-1.514 -1.299,-2.76c-0.314,-1.242 -0.348,-2.778 0.104,-4.339c0.437,-1.56 1.323,-3.115 2.5,-4.415c0.876,-0.972 1.907,-1.802 2.982,-2.495c-0.829,0.657 -1.634,1.395 -2.357,2.225Zm11.224,-4.115c0.139,0.105 0.205,0.169 0.205,0.169c-0.019,-0.025 -0.24,-0.279 -0.688,-0.509c-0.444,-0.232 -1.124,-0.411 -1.828,-0.403c-1.423,0.002 -2.877,0.654 -2.992,0.661l-0.175,0.029l0.029,-0.026c0.1,-0.055 1.354,-0.671 2.846,-0.758c0.752,-0.049 1.55,0.167 2.067,0.455c0.522,0.287 0.806,0.563 0.849,0.573c0,0 -0.084,-0.073 -0.244,-0.208c-0.167,-0.128 -0.413,-0.322 -0.781,-0.5c-0.362,-0.182 -0.85,-0.343 -1.409,-0.384c-0.559,-0.049 -1.164,0.026 -1.77,0.165c-0.608,0.132 -1.244,0.354 -1.881,0.649c-0.25,-0.046 -0.617,-0.09 -1.662,0.206c-1.135,0.339 -2.26,0.893 -3.065,1.406c-0.808,0.508 -1.305,0.948 -1.305,0.948c0,0 0.622,-0.386 0.733,-0.393c-0.837,0.508 -1.641,1.358 -1.641,1.358c0,0 0.042,0.038 0.18,0.012c0.137,-0.026 0.371,-0.114 0.761,-0.345c-0.312,0.266 -0.617,0.439 -0.617,0.439c0,0 0.041,0.06 0.273,-0.077c-0.868,0.622 -1.614,1.456 -2.091,2.148c-0.48,0.693 -0.715,1.222 -0.715,1.222c0,0 0.382,-0.533 0.484,-0.582c-0.286,0.397 -0.534,0.873 -0.7,1.252c-0.169,0.378 -0.254,0.657 -0.254,0.657c0,0 0.054,0.018 0.168,-0.063c0.112,-0.082 0.288,-0.261 0.549,-0.63c-0.263,0.529 -0.528,0.894 -0.528,0.894c0,0 0.098,0.085 0.362,-0.31c-0.424,0.731 -0.809,1.889 -0.907,2.896c-0.063,0.501 -0.057,0.954 -0.049,1.281c0.023,0.326 0.037,0.525 0.037,0.525c0,0 0.054,-0.59 0.115,-0.686c-0.053,0.99 0.316,2.12 0.316,2.12c0,0 0.054,-0.019 0.099,-0.153c0.045,-0.133 0.077,-0.38 0.076,-0.831c0.075,0.309 0.164,0.709 0.26,1.027c0.091,0.32 0.178,0.559 0.178,0.559c0,0 0.026,-0.061 0.019,-0.245c0.002,-0.185 -0.029,-0.492 -0.095,-0.988c0.193,0.698 0.57,1.502 0.961,2.076c0.387,0.578 0.76,0.932 0.76,0.932c0,0 -0.294,-0.329 -0.556,-0.774c-0.267,-0.44 -0.502,-0.985 -0.547,-1.295c0.366,0.802 0.836,1.375 1.193,1.732l0.086,0.081l0.004,0.006l-0.003,-0.005c0.139,0.133 0.261,0.241 0.351,0.308c0.105,0.083 0.162,0.128 0.162,0.128c0,0 -0.074,-0.073 -0.214,-0.21c-0.107,-0.105 -0.254,-0.267 -0.413,-0.462c-0.059,-0.12 -0.139,-0.273 -0.221,-0.479c-0.201,-0.458 -0.447,-1.125 -0.616,-1.938c0.132,0.263 0.33,0.773 0.541,1.196c0.106,0.211 0.203,0.405 0.288,0.541c0.078,0.138 0.127,0.225 0.127,0.225c0,0 -0.217,-0.414 -0.423,-1.003c-0.212,-0.587 -0.375,-1.352 -0.448,-1.987c0.135,0.425 0.27,0.655 0.37,0.779c0.098,0.126 0.152,0.15 0.152,0.15c0,0 -0.062,-0.2 -0.143,-0.459c-0.067,-0.265 -0.134,-0.599 -0.152,-0.863c0.135,0.356 0.27,0.515 0.368,0.589c0.096,0.075 0.152,0.064 0.152,0.064c0,0 -0.15,-0.862 -0.232,-1.624c0.029,0.037 0.076,0.166 0.116,0.283c0.044,0.119 0.082,0.224 0.082,0.224c0,0 -0.074,-0.59 -0.062,-1.367c0.004,-0.776 0.136,-1.73 0.266,-2.429c-0.025,0.401 0.111,0.398 0.111,0.398c0,0 -0.03,-0.374 0.135,-0.838c-0.102,0.751 0.128,0.824 0.128,0.824c0,0 0.299,-0.829 0.586,-1.543c0.007,0.091 -0.118,0.583 -0.118,0.583c0,0 0.184,-0.394 0.486,-0.97c0.3,-0.577 0.736,-1.329 1.184,-2.087c-0.088,0.208 -0.024,0.245 -0.024,0.245c0,0 0.1,-0.271 0.316,-0.532c-0.346,0.671 -0.159,0.822 -0.159,0.822c0,0 0.555,-0.664 1.065,-1.277c-0.016,0.093 -0.333,0.568 -0.333,0.568c0,0 0.336,-0.378 0.858,-0.917c0.523,-0.537 1.233,-1.24 1.941,-1.916c0.663,-0.603 0.824,-0.892 0.94,-1.092c0.768,-0.327 1.508,-0.591 2.171,-0.75c1.246,-0.302 2.265,-0.14 2.888,0.125c0.312,0.13 0.528,0.274 0.667,0.378Zm203.21,22.694c-0.628,1.498 -1.62,2.672 -2.644,3.442c-1.021,0.777 -2.031,1.166 -2.744,1.332l-0.05,0.01c0.178,-0.066 0.391,-0.156 0.661,-0.281c0.658,-0.328 1.571,-0.889 2.427,-1.801c0.86,-0.902 1.675,-2.131 2.191,-3.594c0.517,-1.458 0.737,-3.104 0.668,-4.717c-0.042,-1.1 -0.205,-2.18 -0.437,-3.212c0.401,1.214 0.683,2.508 0.755,3.815c0.099,1.75 -0.189,3.517 -0.827,5.006Zm1.992,-6.523c0,0 -0.112,-0.654 -0.42,-1.558c-0.306,-0.904 -0.833,-2.041 -1.504,-3.018c-0.628,-0.886 -0.94,-1.082 -1.164,-1.203c-0.311,-0.63 -0.665,-1.202 -1.056,-1.687c-0.385,-0.488 -0.808,-0.926 -1.274,-1.24c-0.46,-0.319 -0.942,-0.499 -1.338,-0.586c-0.398,-0.092 -0.712,-0.096 -0.922,-0.101c-0.209,0.005 -0.32,0.008 -0.32,0.008c0.04,0.02 0.434,-0.016 1.02,0.089c0.584,0.1 1.341,0.433 1.895,0.944c1.106,1.003 1.696,2.271 1.739,2.376l0.007,0.038l-0.119,-0.132c-0.085,-0.077 -0.807,-1.498 -1.913,-2.393c-0.543,-0.449 -1.185,-0.736 -1.676,-0.834c-0.494,-0.103 -0.824,-0.045 -0.856,-0.036c0,0 0.092,-0.01 0.266,-0.003c0.174,0.006 0.433,0.029 0.757,0.125c0.651,0.184 1.546,0.697 2.326,1.715c0.415,0.541 0.826,1.211 1.219,1.948c-0.035,0.228 -0.091,0.554 0.046,1.44c0.127,0.97 0.237,1.964 0.307,2.71c0.068,0.747 0.093,1.252 0.093,1.252l0.097,-0.652c0.012,0.798 0.026,1.663 0.026,1.663c0,0 0.241,0 0.393,-0.739c0.005,0.338 -0.088,0.612 -0.088,0.612c0,0 0.074,0.012 0.136,-0.206c-0.128,0.871 -0.26,1.731 -0.389,2.369c-0.127,0.637 -0.232,1.059 -0.232,1.059l0.275,-0.527c-0.225,0.735 -0.513,1.569 -0.513,1.569c0,0 0.225,0.086 0.617,-0.561c-0.164,0.464 -0.422,0.737 -0.422,0.737c0,0 0.105,0.087 0.337,-0.24c-0.337,0.625 -0.834,1.451 -1.318,2.057c-0.478,0.612 -0.906,1.025 -0.906,1.025c0,0 0.095,-0.058 0.204,-0.123c0.104,-0.066 0.223,-0.137 0.268,-0.148c-0.543,0.543 -1.2,1.119 -1.2,1.119c0,0 0.037,0.043 0.158,0.045c0.123,0.004 0.329,-0.034 0.656,-0.227c-0.179,0.194 -0.441,0.413 -0.659,0.576c-0.226,0.151 -0.4,0.267 -0.4,0.267c0,0 0.058,0.016 0.211,-0.02c0.157,-0.034 0.406,-0.128 0.778,-0.374c-0.455,0.447 -1.062,0.941 -1.596,1.266c-0.531,0.328 -0.959,0.513 -0.959,0.513c0,0 0.093,-0.036 0.241,-0.095c0.15,-0.052 0.348,-0.143 0.563,-0.241c0.43,-0.196 0.904,-0.469 1.171,-0.59c-0.641,0.526 -1.251,0.891 -1.695,1.121c-0.193,0.11 -0.353,0.178 -0.473,0.235c-0.246,0.051 -0.463,0.085 -0.611,0.1c-0.195,0.019 -0.299,0.029 -0.299,0.029c0,0 0.072,0.001 0.207,0.002c0.112,0.005 0.275,-0.003 0.466,-0.02l-0.005,0.003l0.007,-0.003l0.118,-0.009c0.501,-0.052 1.228,-0.205 2.015,-0.598c-0.23,0.213 -0.754,0.489 -1.238,0.664c-0.484,0.181 -0.919,0.253 -0.919,0.253c0,0 0.512,-0.04 1.176,-0.248c0.665,-0.201 1.464,-0.589 2.052,-1.012c-0.362,0.345 -0.58,0.563 -0.695,0.709c-0.12,0.139 -0.139,0.202 -0.139,0.202c0,0 0.219,-0.131 0.489,-0.323c0.276,-0.188 0.596,-0.442 0.848,-0.636c-0.283,0.351 -0.414,0.564 -0.463,0.695c-0.049,0.133 -0.018,0.181 -0.018,0.181c0,0 0.996,-0.648 1.578,-1.452c-0.014,0.114 -0.342,0.606 -0.342,0.606c0,0 0.136,-0.145 0.358,-0.385c0.211,-0.249 0.501,-0.598 0.766,-1.027c0.557,-0.846 0.983,-1.989 1.113,-2.824c-0.043,0.474 0.086,0.469 0.086,0.469c0,0 0.024,-0.451 0.152,-1.028c-0.029,0.452 -0.005,0.701 0.031,0.834c0.038,0.136 0.091,0.157 0.091,0.157c0,0 0.109,-0.272 0.214,-0.672c0.109,-0.4 0.216,-0.926 0.243,-1.414c0.048,0.101 0.011,0.757 0.011,0.757c0,0 0.149,-0.559 0.21,-1.4c0.063,-0.838 0.006,-1.956 -0.279,-2.985c0.095,0.253 0.164,0.231 0.164,0.231c0,0 -0.129,-0.325 -0.204,-0.729c0.159,0.426 0.286,0.641 0.376,0.748c0.091,0.106 0.147,0.102 0.147,0.102c0,0 -0.091,-1.167 -0.424,-2.087l0.324,0.766Zm3.388,-3.032c-0.306,1.246 -0.848,2.183 -1.298,2.76l-0.033,0.039c0.097,-0.162 0.206,-0.366 0.338,-0.634c0.307,-0.668 0.664,-1.678 0.757,-2.926c0.105,-1.241 -0.033,-2.71 -0.55,-4.173c-0.513,-1.459 -1.376,-2.877 -2.442,-4.09c-0.724,-0.83 -1.528,-1.568 -2.356,-2.225c1.074,0.693 2.105,1.523 2.981,2.495c1.177,1.3 2.063,2.855 2.5,4.415c0.452,1.561 0.418,3.097 0.103,4.339Zm1.295,-2.188c-0.098,-1.007 -0.483,-2.165 -0.907,-2.896c0.264,0.395 0.362,0.31 0.362,0.31c0,0 -0.265,-0.365 -0.528,-0.894c0.261,0.369 0.437,0.548 0.549,0.63c0.114,0.081 0.168,0.063 0.168,0.063c0,0 -0.085,-0.279 -0.254,-0.657c-0.167,-0.379 -0.414,-0.855 -0.7,-1.252c0.101,0.049 0.484,0.582 0.484,0.582c0,0 -0.234,-0.529 -0.715,-1.222c-0.477,-0.692 -1.223,-1.526 -2.091,-2.148c0.232,0.137 0.272,0.077 0.272,0.077c0,0 -0.305,-0.173 -0.616,-0.439c0.39,0.231 0.625,0.319 0.762,0.345c0.137,0.026 0.179,-0.012 0.179,-0.012c0,0 -0.803,-0.85 -1.641,-1.358c0.111,0.007 0.733,0.393 0.733,0.393c0,0 -0.497,-0.44 -1.305,-0.948c-0.805,-0.513 -1.929,-1.067 -3.065,-1.406c-1.045,-0.296 -1.411,-0.252 -1.662,-0.206c-0.637,-0.295 -1.273,-0.517 -1.881,-0.649c-0.606,-0.139 -1.211,-0.214 -1.77,-0.165c-0.559,0.041 -1.046,0.202 -1.409,0.384c-0.368,0.178 -0.615,0.372 -0.782,0.5c-0.158,0.135 -0.243,0.208 -0.243,0.208c0.044,-0.01 0.327,-0.286 0.849,-0.573c0.517,-0.288 1.315,-0.504 2.068,-0.455c1.491,0.087 2.745,0.703 2.845,0.758l0.029,0.026l-0.175,-0.029c-0.114,-0.007 -1.569,-0.659 -2.992,-0.661c-0.704,-0.008 -1.384,0.171 -1.827,0.403c-0.449,0.23 -0.67,0.484 -0.689,0.509c0,0 0.066,-0.064 0.205,-0.169c0.139,-0.104 0.355,-0.248 0.667,-0.378c0.622,-0.265 1.642,-0.427 2.888,-0.125c0.662,0.159 1.403,0.423 2.172,0.75c0.115,0.2 0.276,0.489 0.939,1.092c0.708,0.676 1.418,1.379 1.941,1.916c0.521,0.539 0.858,0.917 0.858,0.917c0,0 -0.317,-0.475 -0.334,-0.568c0.512,0.613 1.066,1.277 1.066,1.277c0,0 0.186,-0.151 -0.159,-0.822c0.216,0.261 0.317,0.532 0.317,0.532c0,0 0.063,-0.037 -0.026,-0.245c0.449,0.758 0.885,1.51 1.186,2.087c0.301,0.576 0.485,0.97 0.485,0.97c0,0 -0.126,-0.492 -0.118,-0.583c0.287,0.714 0.586,1.543 0.586,1.543c0,0 0.23,-0.073 0.128,-0.824c0.165,0.464 0.135,0.838 0.135,0.838c0,0 0.136,0.003 0.111,-0.398c0.13,0.699 0.262,1.653 0.266,2.429c0.012,0.777 -0.062,1.367 -0.062,1.367c0,0 0.038,-0.105 0.081,-0.224c0.04,-0.117 0.088,-0.246 0.117,-0.283c-0.082,0.762 -0.232,1.624 -0.232,1.624c0,0 0.056,0.011 0.151,-0.064c0.098,-0.074 0.235,-0.233 0.369,-0.589c-0.017,0.264 -0.085,0.598 -0.153,0.863c-0.08,0.259 -0.142,0.459 -0.142,0.459c0,0 0.054,-0.024 0.151,-0.15c0.102,-0.124 0.236,-0.354 0.371,-0.779c-0.073,0.635 -0.236,1.4 -0.447,1.987c-0.207,0.589 -0.425,1.003 -0.425,1.003c0,0 0.05,-0.087 0.128,-0.225c0.085,-0.136 0.182,-0.33 0.288,-0.541c0.211,-0.423 0.409,-0.933 0.541,-1.196c-0.17,0.813 -0.415,1.48 -0.616,1.938c-0.082,0.206 -0.162,0.359 -0.221,0.479c-0.16,0.195 -0.306,0.357 -0.413,0.462c-0.14,0.137 -0.214,0.21 -0.214,0.21c0,0 0.057,-0.045 0.162,-0.128c0.09,-0.067 0.212,-0.175 0.351,-0.308l-0.002,0.005l0.003,-0.006l0.087,-0.081c0.356,-0.357 0.826,-0.93 1.191,-1.732c-0.045,0.31 -0.279,0.855 -0.546,1.295c-0.261,0.445 -0.556,0.774 -0.556,0.774c0,0 0.373,-0.354 0.76,-0.932c0.391,-0.574 0.769,-1.378 0.961,-2.076c-0.065,0.496 -0.097,0.803 -0.095,0.988c-0.007,0.184 0.018,0.245 0.018,0.245c0,0 0.088,-0.239 0.179,-0.559c0.096,-0.318 0.184,-0.718 0.26,-1.027c0,0.451 0.032,0.698 0.076,0.831c0.045,0.134 0.099,0.153 0.099,0.153c0,0 0.369,-1.13 0.317,-2.12c0.06,0.096 0.114,0.686 0.114,0.686c0,0 0.014,-0.199 0.037,-0.525c0.007,-0.327 0.014,-0.78 -0.049,-1.281Zm-46.135,-23.544l0.235,-0.153c-0.221,0.166 -0.479,0.359 -0.727,0.561c0.163,-0.137 0.312,-0.275 0.492,-0.408Zm-1.432,1.025c-0.767,0.81 -1.23,1.627 -1.493,2.212c-0.262,0.589 -0.348,0.947 -0.348,0.947c0,0 0.05,-0.124 0.145,-0.354c0.102,-0.228 0.253,-0.564 0.496,-0.965c0.305,-0.518 0.784,-1.156 1.423,-1.803c0.174,-0.148 0.451,-0.37 0.816,-0.613c0.607,-0.417 1.431,-0.832 2.133,-1.107c-0.451,0.263 -0.678,0.48 -0.799,0.617c-0.12,0.138 -0.135,0.201 -0.135,0.201c0,0 0.204,-0.137 0.49,-0.292c0.282,-0.161 0.65,-0.329 0.946,-0.432c-0.739,0.498 -0.626,0.719 -0.626,0.719c0,0 0.957,-0.437 1.816,-0.752l-0.534,0.35c0,0 0.665,-0.263 1.567,-0.49c0.9,-0.231 2.04,-0.406 2.869,-0.529c-0.456,0.116 -0.401,0.24 -0.401,0.24c0,0 0.41,-0.153 0.994,-0.166c-0.874,0.173 -0.869,0.409 -0.869,0.409c0,0 1.054,-0.007 2.002,-0.013c-0.095,0.047 -0.704,0.112 -0.704,0.112c0,0 0.528,0.028 1.32,0.071c0.789,0.045 1.845,0.102 2.887,0.112c-0.264,0.027 -0.26,0.1 -0.26,0.1c0,0 0.337,-0.048 0.735,0.012c-0.888,0.036 -0.924,0.268 -0.924,0.268c0,0 1.04,0.155 1.976,0.293c-0.1,0.032 -0.779,-0.005 -0.779,-0.005c0,0 0.602,0.102 1.465,0.293c0.864,0.193 1.98,0.506 3.031,0.966c0.782,0.35 1.156,0.51 1.409,0.573c0.257,0.067 0.383,0.057 0.61,0.236c0.106,0.065 1.277,1.295 1.941,2.834c0.347,0.756 0.573,1.561 0.696,2.185c0.116,0.625 0.143,1.066 0.166,1.108c0,0 -0.011,-0.123 -0.03,-0.354c-0.016,-0.23 -0.06,-0.567 -0.144,-0.989c-0.167,-0.842 -0.524,-2.04 -1.305,-3.293c-0.762,-1.251 -1.989,-2.552 -3.611,-3.433c-1.61,-0.89 -3.485,-1.369 -5.316,-1.692c-1.826,-0.318 -3.684,-0.57 -5.469,-0.565c-1.626,-0.003 -3.168,0.238 -4.468,0.664c0.866,-0.374 1.824,-0.678 2.845,-0.882c2.036,-0.417 4.306,-0.479 6.5,-0.138c2.192,0.35 4.308,1.135 6.015,2.288c1.714,1.136 2.999,2.626 3.813,4.044c0.824,1.42 1.189,2.75 1.339,3.68c0.073,0.467 0.111,0.836 0.116,1.089c0.011,0.252 0.017,0.386 0.017,0.386c0.001,-0.046 0.03,-0.53 -0.053,-1.228c-0.083,-0.697 -0.287,-1.607 -0.627,-2.478c-0.657,-1.764 -1.896,-3.248 -1.982,-3.357c-0.179,-0.276 -0.171,-0.41 -0.275,-0.693c-0.107,-0.283 -0.305,-0.738 -1.064,-1.541c-1.029,-1.069 -2.373,-1.914 -3.455,-2.412c-0.541,-0.252 -1.012,-0.428 -1.347,-0.543c-0.335,-0.115 -0.533,-0.168 -0.533,-0.168c0,0 0.206,0.088 0.429,0.186c0.218,0.107 0.444,0.226 0.49,0.272c-1.109,-0.505 -2.532,-0.76 -2.532,-0.76c0,0 -0.009,0.056 0.113,0.163c0.123,0.108 0.38,0.258 0.893,0.487c-0.492,-0.141 -0.884,-0.313 -0.884,-0.313c0,0 -0.032,0.066 0.273,0.197c-1.25,-0.434 -2.614,-0.637 -3.646,-0.679c-1.034,-0.05 -1.736,0.018 -1.736,0.018c0,0 0.798,0.056 0.914,0.116c-0.601,-0.04 -1.257,-0.01 -1.762,0.039c-0.505,0.049 -0.857,0.111 -0.857,0.111c0,0 0.009,0.056 0.161,0.115c0.151,0.059 0.442,0.117 0.999,0.157c-0.735,0.044 -1.28,-0.003 -1.28,-0.003c0,0 -0.045,0.125 0.54,0.156c-1.049,0.001 -2.528,0.245 -3.699,0.653c-1.176,0.391 -2.03,0.898 -2.03,0.898c0,0 0.68,-0.246 0.81,-0.242c-0.559,0.233 -1.135,0.571 -1.555,0.867c-0.421,0.293 -0.692,0.534 -0.692,0.534c0,0 0.036,0.04 0.197,0.014c0.162,-0.026 0.442,-0.127 0.947,-0.363c-0.32,0.232 -0.735,0.53 -1.053,0.796c-0.319,0.263 -0.552,0.477 -0.552,0.477c0,0 0.07,-0.011 0.273,-0.11c0.201,-0.101 0.525,-0.301 1.059,-0.628c-0.715,0.561 -1.483,1.371 -1.965,2.101c-0.499,0.719 -0.746,1.318 -0.746,1.318c0,0 0.25,-0.496 0.636,-1.019c0.379,-0.527 0.906,-1.061 1.228,-1.28Zm38.311,5.589c1.73,0.284 3.393,0.948 4.707,1.896c1.326,0.938 2.256,2.16 2.785,3.327c0.537,1.167 0.697,2.238 0.704,2.969l-0.001,0.051c-0.026,-0.188 -0.067,-0.415 -0.131,-0.707c-0.177,-0.713 -0.526,-1.726 -1.23,-2.759c-0.693,-1.036 -1.716,-2.099 -3.032,-2.921c-1.311,-0.821 -2.869,-1.392 -4.459,-1.677c-1.083,-0.198 -2.173,-0.274 -3.23,-0.271c1.272,-0.128 2.597,-0.121 3.887,0.092Zm-10.485,1.678c1.221,-0.86 2.586,-1.161 2.697,-1.18l0.04,0.002l-0.155,0.088c-0.094,0.065 -1.637,0.461 -2.752,1.346c-0.555,0.433 -0.976,0.996 -1.177,1.454c-0.209,0.46 -0.223,0.796 -0.222,0.828c0,0 0.011,-0.091 0.055,-0.26c0.043,-0.168 0.123,-0.415 0.287,-0.711c0.32,-0.597 1.017,-1.358 2.179,-1.898c0.619,-0.289 1.362,-0.544 2.166,-0.767c0.215,0.085 0.521,0.21 1.416,0.268c0.974,0.087 1.968,0.196 2.711,0.289c0.744,0.097 1.243,0.182 1.243,0.182l-0.615,-0.235c0.781,0.16 1.629,0.335 1.629,0.335c0,0 0.052,-0.236 -0.637,-0.544c0.332,0.069 0.58,0.218 0.58,0.218c0,0 0.027,-0.069 -0.172,-0.176c0.823,0.313 1.632,0.63 2.227,0.893c0.595,0.263 0.984,0.456 0.984,0.456l-0.455,-0.382c0.669,0.379 1.419,0.842 1.419,0.842c0,0 0.134,-0.201 -0.413,-0.724c0.418,0.26 0.628,0.571 0.628,0.571c0,0 0.108,-0.082 -0.161,-0.38c0.536,0.465 1.235,1.129 1.722,1.734c0.493,0.599 0.803,1.107 0.803,1.107c0,0 -0.036,-0.106 -0.076,-0.226c-0.042,-0.116 -0.085,-0.247 -0.086,-0.295c0.413,0.649 0.831,1.415 0.831,1.415c0,0 0.05,-0.026 0.08,-0.143c0.03,-0.119 0.037,-0.328 -0.08,-0.691c0.151,0.217 0.306,0.521 0.418,0.77c0.099,0.253 0.174,0.447 0.174,0.447c0,0 0.029,-0.052 0.027,-0.211c0.001,-0.16 -0.036,-0.424 -0.197,-0.841c0.339,0.542 0.689,1.244 0.889,1.834c0.205,0.589 0.293,1.048 0.293,1.048c0,0 -0.016,-0.098 -0.04,-0.256c-0.019,-0.158 -0.064,-0.371 -0.113,-0.602c-0.098,-0.463 -0.261,-0.983 -0.322,-1.272c0.374,0.742 0.598,1.415 0.727,1.899c0.064,0.213 0.097,0.383 0.125,0.513c-0.003,0.252 -0.017,0.47 -0.034,0.619c-0.025,0.194 -0.037,0.298 -0.037,0.298c0,0 0.016,-0.072 0.047,-0.203c0.029,-0.107 0.056,-0.268 0.083,-0.459l0.001,0.005l-0.001,-0.007l0.016,-0.117c0.058,-0.501 0.068,-1.242 -0.146,-2.096c0.158,0.27 0.313,0.842 0.38,1.353c0.072,0.511 0.046,0.951 0.046,0.951c0,0 0.072,-0.508 0.014,-1.202c-0.052,-0.692 -0.258,-1.556 -0.542,-2.223c0.258,0.429 0.424,0.689 0.541,0.834c0.109,0.146 0.168,0.178 0.168,0.178c0,0 -0.081,-0.241 -0.21,-0.548c-0.123,-0.308 -0.303,-0.677 -0.436,-0.964c0.281,0.352 0.46,0.525 0.578,0.602c0.119,0.076 0.173,0.058 0.173,0.058c0,0 -0.416,-1.114 -1.075,-1.856c0.108,0.037 0.518,0.465 0.518,0.465c0,0 -0.113,-0.164 -0.299,-0.434c-0.197,-0.259 -0.474,-0.618 -0.836,-0.97c-0.705,-0.727 -1.727,-1.392 -2.514,-1.7c0.453,0.144 0.476,0.017 0.476,0.017c0,0 -0.435,-0.12 -0.971,-0.371c0.435,0.126 0.683,0.157 0.822,0.15c0.14,-0.006 0.172,-0.054 0.172,-0.054c0,0 -0.242,-0.165 -0.609,-0.356c-0.366,-0.192 -0.856,-0.411 -1.327,-0.543c0.109,-0.025 0.741,0.154 0.741,0.154c0,0 -0.513,-0.268 -1.32,-0.51c-0.805,-0.243 -1.908,-0.431 -2.976,-0.377c0.268,-0.037 0.262,-0.109 0.262,-0.109c0,0 -0.346,0.054 -0.756,0.041c0.45,-0.063 0.688,-0.14 0.812,-0.205c0.123,-0.066 0.132,-0.122 0.132,-0.122c0,0 -1.159,-0.164 -2.13,-0.039c0.091,-0.064 0.818,-0.15 0.818,-0.15c0,0 -0.662,-0.033 -1.611,0.072c-0.95,0.101 -2.174,0.368 -3.273,0.811c-1.002,0.421 -1.261,0.683 -1.428,0.875c-0.682,0.167 -1.318,0.387 -1.875,0.664c-0.561,0.269 -1.082,0.588 -1.488,0.974c-0.412,0.38 -0.692,0.811 -0.862,1.178c-0.177,0.369 -0.249,0.675 -0.3,0.879c-0.04,0.205 -0.061,0.315 -0.061,0.315c0.028,-0.036 0.078,-0.429 0.307,-0.977c0.225,-0.549 0.714,-1.215 1.333,-1.646Z" style="fill:url(#_Linear1);"/><defs><linearGradient id="_Linear1" x1="0" y1="0" x2="1" y2="0" gradientUnits="userSpaceOnUse" gradientTransform="matrix(225.739,0,0,225.739,-0.000138762,22.4934)"><stop offset="0" style="stop-color:#daa45a;stop-opacity:1"/><stop offset="0.1" style="stop-color:#f3c14e;stop-opacity:1"/><stop offset="0.2" style="stop-color:#fed469;stop-opacity:1"/><stop offset="0.3" style="stop-color:#fed77e;stop-opacity:1"/><stop offset="0.4" style="stop-color:#fed052;stop-opacity:1"/><stop offset="0.5" style="stop-color:#f5bb53;stop-opacity:1"/><stop offset="0.6" style="stop-color:#f9cb76;stop-opacity:1"/><stop offset="0.7" style="stop-color:#fed571;stop-opacity:1"/><stop offset="0.8" style="stop-color:#f5c24e;stop-opacity:1"/><stop offset="0.9" style="stop-color:#e2ad55;stop-opacity:1"/><stop offset="1" style="stop-color:#fecf4c;stop-opacity:1"/></linearGradient></defs></svg>