<?xml version="1.0" encoding="UTF-8" standalone="no"?><!DOCTYPE svg PUBLIC "-//W3C//DTD SVG 1.1//EN" "http://www.w3.org/Graphics/SVG/1.1/DTD/svg11.dtd"><svg width="100%" height="100%" viewBox="0 0 203 43" version="1.1" xmlns="http://www.w3.org/2000/svg" xmlns:xlink="http://www.w3.org/1999/xlink" xml:space="preserve" xmlns:serif="http://www.serif.com/" style="fill-rule:evenodd;clip-rule:evenodd;stroke-linejoin:round;stroke-miterlimit:1.41421;"><path d="M11.505,2.739c0.541,-0.038 1.009,0.369 1.047,0.909c0.038,0.541 -0.368,1.01 -0.909,1.048c-0.54,0.038 -1.009,-0.369 -1.047,-0.909c-0.038,-0.541 0.369,-1.01 0.909,-1.048Z" style="fill:#fff;"/><path d="M11.758,0c3.094,0 5.751,2.262 6.415,5.535c0.13,0.633 0.216,1.289 0.257,1.945l-0.959,0.059c-0.039,-0.612 -0.118,-1.222 -0.239,-1.813c-0.598,-2.95 -3.045,-4.957 -5.852,-4.753l-0.661,0.071l0,-0.003c-0.967,0.164 -1.84,0.652 -2.492,1.403c-0.744,0.856 -1.11,1.952 -1.03,3.084c0.089,1.255 0.708,2.378 1.712,3.118l0.216,0.151c0.507,0.311 1.105,0.46 1.702,0.415c1.585,-0.113 2.784,-1.493 2.673,-3.077c-0.082,-1.158 -0.845,-2.148 -1.943,-2.524l0.311,-0.909c1.465,0.501 2.48,1.822 2.59,3.366c0.148,2.113 -1.451,3.953 -3.563,4.102c-0.943,0.066 -1.882,-0.216 -2.631,-0.801l0.002,-0.002c-1.188,-0.909 -1.921,-2.262 -2.028,-3.771c-0.098,-1.388 0.351,-2.731 1.264,-3.782c0.913,-1.052 2.179,-1.685 3.568,-1.781l0.24,-0.018l0.059,-0.004l0.123,-0.009l0.001,0.002l0.265,-0.004Z" style="fill:#fff;"/><path d="M22.272,5.495c0.616,0 1.208,0.226 1.666,0.637l-0.001,0.001c0.713,0.629 1.116,1.521 1.116,2.481c0,1.827 -1.486,3.312 -3.312,3.312l-0.481,-0.013c-1.913,-0.161 -3.452,-1.683 -3.72,-3.74c-0.035,-0.263 -0.061,-0.521 -0.076,-0.776l0.96,-0.054c0.013,0.233 0.037,0.466 0.067,0.706c0.222,1.69 1.528,2.916 3.104,2.916l0.41,-0.014c1.172,-0.132 2.087,-1.13 2.087,-2.337c0,-0.691 -0.295,-1.332 -0.813,-1.78l-0.12,-0.096c-0.258,-0.184 -0.567,-0.283 -0.887,-0.283c-0.845,0 -1.532,0.687 -1.532,1.532c0,0.617 0.367,1.171 0.935,1.411l-0.373,0.885c-0.924,-0.39 -1.523,-1.292 -1.523,-2.296c0,-1.374 1.118,-2.492 2.493,-2.492Z" style="fill:#fff;"/><path d="M21.663,8.734c-0.384,0 -0.696,0.311 -0.696,0.695c0,0.384 0.312,0.695 0.696,0.695c0.383,0 0.694,-0.311 0.694,-0.695c0,-0.384 -0.311,-0.695 -0.694,-0.695Z" style="fill:#fff;"/><path d="M14.299,11.251c-0.621,0 -1.124,0.503 -1.124,1.124c0,0.622 0.503,1.125 1.124,1.125c0.622,0 1.125,-0.503 1.125,-1.125c0,-0.621 -0.503,-1.124 -1.125,-1.124Z" style="fill:#fff;"/><path d="M6.675,9.816l2.562,2.559l-2.562,2.562l-6.675,-2.562l6.675,-2.559Z" style="fill:#fff;"/><path d="M11.505,21.912c0.541,0.038 1.009,-0.369 1.047,-0.91c0.038,-0.54 -0.368,-1.008 -0.909,-1.046c-0.54,-0.039 -1.009,0.369 -1.047,0.909c-0.038,0.54 0.369,1.009 0.909,1.047Z" style="fill:#fff;"/><path d="M10.623,14.471c0.09,0 0.18,0.004 0.272,0.011c2.112,0.148 3.711,1.988 3.563,4.101c-0.11,1.544 -1.125,2.866 -2.59,3.367l-0.311,-0.909c1.098,-0.376 1.861,-1.368 1.943,-2.525c0.111,-1.585 -1.088,-2.965 -2.673,-3.076c-0.595,-0.037 -1.193,0.103 -1.701,0.413l0,0.001l-0.225,0.155c-0.999,0.741 -1.615,1.862 -1.704,3.114c-0.155,2.207 1.413,4.145 3.556,4.493l0.627,0.061c2.782,0.19 5.253,-1.802 5.852,-4.752c0.121,-0.591 0.2,-1.2 0.239,-1.813l0.959,0.06c-0.041,0.657 -0.127,1.312 -0.257,1.945c-0.695,3.429 -3.568,5.761 -6.86,5.518l-0.127,-0.01l-0.116,-0.006c-2.866,-0.203 -5.033,-2.698 -4.832,-5.564c0.107,-1.509 0.84,-2.862 2.028,-3.77l-0.002,-0.002c0.677,-0.529 1.505,-0.812 2.359,-0.812Z" style="fill:#fff;"/><path d="M21.595,12.726l0.146,0c1.826,0 3.312,1.485 3.312,3.312c0,0.96 -0.403,1.851 -1.116,2.479l0.001,0.002c-0.458,0.411 -1.05,0.639 -1.666,0.639c-1.375,0 -2.493,-1.118 -2.493,-2.493c0,-1.004 0.599,-1.906 1.522,-2.297l0.375,0.884c-0.569,0.241 -0.936,0.795 -0.936,1.413c0,0.844 0.687,1.532 1.532,1.532c0.317,0 0.625,-0.099 0.882,-0.28l0.117,-0.095c0.524,-0.447 0.821,-1.091 0.821,-1.784c0,-1.216 -0.927,-2.219 -2.112,-2.339l-0.385,-0.013c-1.576,0 -2.882,1.227 -3.104,2.916c-0.03,0.239 -0.054,0.474 -0.067,0.705l-0.96,-0.052c0.015,-0.255 0.041,-0.514 0.076,-0.777c0.268,-2.056 1.807,-3.578 3.72,-3.739l0,-0.01l0.219,-0.002l0.116,-0.001Z" style="fill:#fff;"/><path d="M21.663,15.916c-0.384,0 -0.696,-0.31 -0.696,-0.694c0,-0.384 0.312,-0.694 0.696,-0.694c0.383,0 0.694,0.31 0.694,0.694c0,0.384 -0.311,0.694 -0.694,0.694Z" style="fill:#fff;"/><path d="M98.317,3.996c0.945,-0.127 1.82,0.543 1.946,1.491c0.126,0.947 -0.544,1.821 -1.491,1.946l-0.228,0.015c-0.856,0 -1.603,-0.635 -1.718,-1.506c-0.125,-0.947 0.544,-1.821 1.491,-1.946Zm-53.631,27.317c2.148,0 4.137,-0.903 5.541,-2.496l0.004,0.003c0.896,-0.997 1.389,-2.284 1.389,-3.625c0,-2.991 -2.434,-5.425 -5.425,-5.425c-1.69,0 -3.239,0.784 -4.251,2.067c-0.724,0.246 -1.249,0.923 -1.249,1.728c0,1.011 0.821,1.833 1.832,1.833c1.011,0 1.832,-0.822 1.832,-1.833c0,-0.686 -0.384,-1.277 -0.943,-1.592c0.757,-0.653 1.735,-1.036 2.779,-1.036c2.349,0 4.259,1.91 4.259,4.258c0,0.892 -0.279,1.755 -0.792,2.472l-0.001,0l-0.232,0.289c-1.186,1.397 -2.895,2.19 -4.743,2.19c-3.249,0 -5.926,-2.5 -6.205,-5.678l0.008,-0.001l-0.026,-0.575c-0.003,-0.108 -0.005,-0.217 -0.005,-0.327c0,-4.084 3.16,-7.462 7.512,-8.032c4.014,-0.527 7.543,-0.171 12.734,3.217l0.244,0.162l0.013,-0.021c1.272,0.997 2.849,1.68 4.618,1.911c3.932,0.513 7.389,0.172 12.442,-3.127c1.436,-0.936 2.926,-1.986 4.504,-3.097c4.366,-3.076 9.313,-6.561 13.685,-7.893c0.489,-0.149 1.003,-0.242 1.527,-0.306c0.273,1.155 1.216,2 2.356,2.184l0,3.363c0,6.057 -2.824,11.935 -2.859,12.009c-1.479,3.281 -4.522,5.319 -7.945,5.319c-0.12,0 -0.24,-0.003 -0.36,-0.006l-0.574,-0.016c-3.492,-0.282 -6.248,-3.214 -6.248,-6.777c0,-2.017 0.866,-3.883 2.391,-5.178l0.315,-0.253l-0.001,-0.001c0.787,-0.564 1.733,-0.868 2.71,-0.868c2.572,0 4.664,2.093 4.664,4.664c0,1.181 -0.443,2.286 -1.202,3.127c-0.125,-0.94 -0.922,-1.669 -1.894,-1.669c-1.058,0 -1.919,0.861 -1.919,1.92c0,1.058 0.861,1.919 1.919,1.919c0.219,0 0.427,-0.044 0.623,-0.113l0.08,0.188c2.163,-0.915 3.56,-3.024 3.56,-5.372c0,-3.215 -2.615,-5.831 -5.831,-5.831c-1.441,0 -2.825,0.53 -3.895,1.494l0.003,0.003c-1.716,1.514 -2.69,3.656 -2.69,5.97c0,4.392 3.574,7.965 7.967,7.965l0.17,-0.002l0.212,0.002c3.887,0 7.34,-2.301 9.001,-5.99c0.068,-0.14 1.001,-2.08 1.803,-4.878l0,9.645l-3.386,3.386c-0.162,0.163 -0.214,0.406 -0.132,0.621l3.556,9.275c0.174,0.451 0.917,0.451 1.09,0l3.557,-9.275c0.082,-0.215 0.031,-0.458 -0.132,-0.621l-3.387,-3.386l0,-9.345c0.703,2.597 1.472,4.42 1.534,4.563c1.644,3.65 5.019,5.938 8.837,6.004l0.552,0.001c4.393,0 7.967,-3.573 7.967,-7.965c0,-2.313 -0.973,-4.456 -2.689,-5.97l0.003,-0.003c-1.071,-0.964 -2.455,-1.494 -3.896,-1.494c-3.215,0 -5.831,2.616 -5.831,5.831c0,2.348 1.398,4.457 3.56,5.372l0.08,-0.188c0.196,0.069 0.404,0.113 0.624,0.113c1.058,0 1.919,-0.861 1.919,-1.919c0,-1.059 -0.861,-1.92 -1.919,-1.92c-0.973,0 -1.77,0.729 -1.895,1.668c-0.759,-0.84 -1.202,-1.945 -1.202,-3.126c0,-2.571 2.092,-4.664 4.664,-4.664c0.978,0 1.923,0.304 2.71,0.868l-0.001,0.001l0.319,0.256c1.522,1.296 2.388,3.16 2.388,5.175c0,3.563 -2.757,6.496 -6.25,6.777l-0.001,-0.007l-0.573,0.023c-0.119,0.003 -0.239,0.006 -0.359,0.006c-3.422,0 -6.466,-2.038 -7.94,-5.309c-0.026,-0.061 -2.601,-6.139 -2.601,-12.019l0,-3.416c1.049,-0.267 1.842,-1.085 2.095,-2.1c0.438,0.065 0.869,0.15 1.279,0.275c4.371,1.332 9.32,4.817 13.686,7.893c1.578,1.111 3.068,2.161 4.503,3.097c5.052,3.299 8.508,3.643 12.442,3.127c1.769,-0.231 3.345,-0.916 4.618,-1.912l0.014,0.021l0.242,-0.16c5.192,-3.389 8.724,-3.744 12.734,-3.218c4.353,0.569 7.513,3.948 7.513,8.032c0,0.11 -0.002,0.219 -0.006,0.327l-0.018,0.569c-0.276,3.181 -2.954,5.685 -6.205,5.685c-1.844,0 -3.551,-0.791 -4.737,-2.184l-0.237,-0.295l-0.001,0c-0.513,-0.717 -0.792,-1.58 -0.792,-2.472c0,-2.348 1.91,-4.258 4.259,-4.258c1.044,0 2.022,0.383 2.779,1.036c-0.56,0.314 -0.943,0.906 -0.943,1.592c0,1.011 0.821,1.833 1.832,1.833c1.01,0 1.832,-0.822 1.832,-1.833c0,-0.805 -0.525,-1.482 -1.248,-1.728c-1.013,-1.283 -2.563,-2.067 -4.252,-2.067c-2.992,0 -5.425,2.434 -5.425,5.425c0,1.341 0.493,2.629 1.389,3.625l0.004,-0.003c1.404,1.593 3.393,2.496 5.54,2.496c4.078,0 7.396,-3.317 7.396,-7.396l-0.003,-0.154l0.003,-0.198c0,-4.678 -3.587,-8.542 -8.528,-9.19c-0.999,-0.13 -1.969,-0.209 -2.939,-0.209c-2.482,0 -4.973,0.537 -7.941,2.067c0.601,-1.11 0.95,-2.361 0.986,-3.689l0.002,-0.545c0,-3.769 -3.066,-6.835 -6.835,-6.835c-1.983,0 -3.822,0.835 -5.12,2.306l-0.003,-0.003c-0.83,0.924 -1.287,2.116 -1.287,3.359c0,2.771 2.255,5.026 5.026,5.026c1.569,0 3.007,-0.728 3.945,-1.922c0.661,-0.239 1.137,-0.866 1.137,-1.608c0,-0.947 -0.769,-1.717 -1.716,-1.717c-0.946,0 -1.716,0.77 -1.716,1.717c0,0.618 0.333,1.157 0.825,1.459c-0.68,0.57 -1.547,0.905 -2.475,0.905c-2.128,0 -3.859,-1.731 -3.859,-3.86c0,-0.808 0.251,-1.588 0.715,-2.239l0.001,0.001l0.217,-0.271c1.08,-1.267 2.633,-1.986 4.31,-1.986c2.942,0 5.368,2.252 5.643,5.124l-0.002,0l0.022,0.566c0.003,0.1 0.005,0.2 0.005,0.301c0,3.723 -2.881,6.803 -6.853,7.323c-3.67,0.48 -6.902,0.156 -11.652,-2.946c-1.418,-0.926 -2.9,-1.97 -4.469,-3.075c-4.438,-3.126 -9.468,-6.669 -14.018,-8.054c-0.505,-0.154 -1.035,-0.257 -1.574,-0.33c-0.235,-1.407 -1.453,-2.426 -2.853,-2.426c-0.125,0 -0.253,0.008 -0.381,0.025c-1.283,0.17 -2.245,1.161 -2.462,2.37c-0.628,0.07 -1.245,0.181 -1.833,0.361c-4.55,1.385 -9.579,4.928 -14.017,8.054c-1.57,1.105 -3.052,2.149 -4.47,3.075c-4.75,3.102 -7.978,3.426 -11.653,2.946c-3.971,-0.52 -6.852,-3.6 -6.852,-7.323c0,-0.1 0.001,-0.197 0.004,-0.296l0.021,-0.568c0.272,-2.873 2.698,-5.127 5.643,-5.127c1.679,0 3.234,0.721 4.313,1.991l0.213,0.265l0.001,0c0.465,0.651 0.717,1.431 0.717,2.239c0,2.129 -1.732,3.86 -3.86,3.86c-0.927,0 -1.795,-0.335 -2.475,-0.905c0.492,-0.302 0.825,-0.841 0.825,-1.459c0,-0.947 -0.77,-1.717 -1.716,-1.717c-0.947,0 -1.717,0.77 -1.717,1.717c0,0.742 0.477,1.369 1.138,1.608c0.938,1.194 2.376,1.922 3.945,1.922c2.772,0 5.026,-2.255 5.026,-5.026c0,-1.242 -0.457,-2.435 -1.287,-3.359l-0.003,0.003c-1.298,-1.471 -3.137,-2.306 -5.12,-2.306c-3.77,0 -6.835,3.066 -6.835,6.835l0.002,0.142l-0.002,0.181c0,1.412 0.359,2.741 0.996,3.916c-2.971,-1.534 -5.464,-2.072 -7.95,-2.072c-0.969,0 -1.94,0.08 -2.937,0.209c-4.872,0.638 -8.427,4.403 -8.526,8.991l-0.003,0.551c0,4.079 3.317,7.396 7.395,7.396Z" style="fill:#fff;"/><path d="M35.197,7.452c1.246,0 2.401,0.103 3.436,0.261c6.75,1.036 12.08,4.858 13.553,7.116l-0.726,0.474c-1.391,-2.127 -6.468,-5.736 -12.959,-6.729c-4.303,-0.66 -10.768,-0.346 -17.133,4.887l-0.554,-0.671c5.087,-4.18 10.237,-5.338 14.383,-5.338Z" style="fill:#fff;"/><path d="M190.963,2.739c-0.541,-0.038 -1.01,0.369 -1.048,0.909c-0.037,0.541 0.369,1.01 0.91,1.048c0.54,0.038 1.009,-0.369 1.047,-0.909c0.038,-0.541 -0.369,-1.01 -0.909,-1.048Z" style="fill:#fff;"/><path d="M190.709,0c-3.094,0 -5.75,2.262 -6.415,5.535c-0.129,0.633 -0.215,1.289 -0.256,1.945l0.958,0.059c0.039,-0.612 0.119,-1.222 0.24,-1.813c0.598,-2.95 3.045,-4.957 5.851,-4.753l0.662,0.071l0,-0.003c0.967,0.164 1.84,0.652 2.491,1.403c0.744,0.856 1.111,1.952 1.032,3.084c-0.09,1.255 -0.709,2.378 -1.712,3.118l-0.217,0.151c-0.507,0.311 -1.105,0.46 -1.702,0.415c-1.585,-0.113 -2.784,-1.493 -2.672,-3.077c0.082,-1.158 0.845,-2.148 1.942,-2.524l-0.311,-0.909c-1.464,0.501 -2.48,1.822 -2.59,3.366c-0.148,2.113 1.45,3.953 3.563,4.102c0.943,0.066 1.882,-0.216 2.631,-0.801l-0.003,-0.002c1.189,-0.909 1.922,-2.262 2.029,-3.771c0.098,-1.388 -0.351,-2.731 -1.264,-3.782c-0.913,-1.052 -2.179,-1.685 -3.568,-1.781l-0.24,-0.018l-0.059,-0.004l-0.122,-0.009l-0.001,0.002l-0.267,-0.004Z" style="fill:#fff;"/><path d="M180.196,5.495c-0.617,0 -1.208,0.226 -1.666,0.637l0.001,0.001c-0.713,0.629 -1.116,1.521 -1.116,2.481c0,1.827 1.486,3.312 3.312,3.312l0.48,-0.013c1.914,-0.161 3.453,-1.683 3.722,-3.74c0.034,-0.263 0.06,-0.521 0.075,-0.776l-0.961,-0.054c-0.012,0.233 -0.036,0.466 -0.066,0.706c-0.222,1.69 -1.528,2.916 -3.104,2.916l-0.41,-0.014c-1.172,-0.132 -2.087,-1.13 -2.087,-2.337c0,-0.691 0.295,-1.332 0.814,-1.78l0.119,-0.096c0.258,-0.184 0.566,-0.283 0.887,-0.283c0.844,0 1.533,0.687 1.533,1.532c0,0.617 -0.368,1.171 -0.936,1.411l0.372,0.885c0.926,-0.39 1.524,-1.292 1.524,-2.296c0,-1.374 -1.118,-2.492 -2.493,-2.492Z" style="fill:#fff;"/><path d="M180.806,8.734c0.383,0 0.694,0.311 0.694,0.695c0,0.384 -0.311,0.695 -0.694,0.695c-0.384,0 -0.695,-0.311 -0.695,-0.695c0,-0.384 0.311,-0.695 0.695,-0.695Z" style="fill:#fff;"/><path d="M188.169,11.251c0.621,0 1.124,0.503 1.124,1.124c0,0.622 -0.503,1.125 -1.124,1.125c-0.622,0 -1.125,-0.503 -1.125,-1.125c0,-0.621 0.503,-1.124 1.125,-1.124Z" style="fill:#fff;"/><path d="M202.469,12.375l-6.676,2.562l-2.562,-2.562l2.562,-2.559l6.676,2.559Z" style="fill:#fff;"/><path d="M190.963,21.912c-0.541,0.038 -1.01,-0.369 -1.048,-0.91c-0.037,-0.54 0.369,-1.008 0.91,-1.046c0.54,-0.039 1.009,0.369 1.047,0.909c0.038,0.54 -0.369,1.009 -0.909,1.047Z" style="fill:#fff;"/><path d="M191.846,14.471c-0.091,0 -0.181,0.004 -0.273,0.011c-2.113,0.148 -3.711,1.988 -3.563,4.101c0.11,1.544 1.126,2.866 2.59,3.367l0.311,-0.909c-1.097,-0.376 -1.86,-1.368 -1.942,-2.525c-0.112,-1.585 1.087,-2.965 2.672,-3.076c0.595,-0.037 1.193,0.103 1.701,0.413l0,0.001l0.225,0.155c0.999,0.741 1.615,1.862 1.705,3.114c0.154,2.207 -1.413,4.145 -3.556,4.493l-0.629,0.061c-2.781,0.19 -5.252,-1.802 -5.851,-4.752c-0.121,-0.591 -0.201,-1.2 -0.24,-1.813l-0.958,0.06c0.041,0.657 0.127,1.312 0.256,1.945c0.696,3.429 3.569,5.761 6.86,5.518l0.127,-0.01l0.117,-0.006c2.866,-0.203 5.033,-2.698 4.832,-5.564c-0.107,-1.509 -0.84,-2.862 -2.029,-3.77l0.003,-0.002c-0.677,-0.529 -1.506,-0.812 -2.358,-0.812Z" style="fill:#fff;"/><path d="M180.873,12.726l-0.146,0c-1.826,0 -3.312,1.485 -3.312,3.312c0,0.96 0.403,1.851 1.116,2.479l-0.001,0.002c0.458,0.411 1.049,0.639 1.666,0.639c1.375,0 2.493,-1.118 2.493,-2.493c0,-1.004 -0.598,-1.906 -1.523,-2.297l-0.374,0.884c0.569,0.241 0.937,0.795 0.937,1.413c0,0.844 -0.689,1.532 -1.533,1.532c-0.317,0 -0.625,-0.099 -0.882,-0.28l-0.118,-0.095c-0.523,-0.447 -0.82,-1.091 -0.82,-1.784c0,-1.216 0.927,-2.219 2.111,-2.339l0.386,-0.013c1.576,0 2.882,1.227 3.104,2.916c0.03,0.239 0.054,0.474 0.066,0.705l0.961,-0.052c-0.015,-0.255 -0.041,-0.514 -0.075,-0.777c-0.269,-2.056 -1.808,-3.578 -3.722,-3.739l0,-0.01l-0.218,-0.002l-0.116,-0.001Z" style="fill:#fff;"/><path d="M180.806,15.916c0.383,0 0.694,-0.31 0.694,-0.694c0,-0.384 -0.311,-0.694 -0.694,-0.694c-0.384,0 -0.695,0.31 -0.695,0.694c0,0.384 0.311,0.694 0.695,0.694Z" style="fill:#fff;"/><path d="M167.271,7.452c4.145,0 9.296,1.156 14.381,5.338l-0.552,0.671c-6.366,-5.235 -12.838,-5.549 -17.135,-4.887c-6.489,0.993 -11.567,4.604 -12.956,6.729l-0.728,-0.474c1.474,-2.258 6.801,-6.08 13.553,-7.114c1.034,-0.16 2.191,-0.263 3.437,-0.263Z" style="fill:#fff;"/></svg>