<?xml version="1.0" encoding="UTF-8" standalone="no"?><!DOCTYPE svg PUBLIC "-//W3C//DTD SVG 1.1//EN" "http://www.w3.org/Graphics/SVG/1.1/DTD/svg11.dtd"><svg width="100%" height="100%" viewBox="0 0 221 40" version="1.1" xmlns="http://www.w3.org/2000/svg" xmlns:xlink="http://www.w3.org/1999/xlink" xml:space="preserve" xmlns:serif="http://www.serif.com/" style="fill-rule:evenodd;clip-rule:evenodd;stroke-linejoin:round;stroke-miterlimit:1.41421;"><path d="M93.069,18.813c0.448,2.954 2.719,5.92 5.993,5.658c3.956,-0.318 6.369,-4.73 7.298,-8.111c1.141,-4.149 0.809,-8.996 -1.673,-12.614c-2.137,-3.115 -5.574,-4.607 -9.209,-3.233c-4.366,1.651 -7.857,5.66 -11.291,8.676c-3.969,3.487 -8.043,6.961 -12.66,9.571c-4.4,2.487 -9.635,4.283 -14.742,3.35c-5.586,-1.019 -9.298,-5.744 -9.278,-11.382c0.01,-2.954 1.181,-5.848 3.862,-7.339c2.254,-1.253 5.094,-1.368 7.617,-1.29c2.044,0.063 4.071,0.488 4.891,2.64c0.463,1.214 0.531,2.869 0.105,4.099c-0.641,1.853 -2.464,3.135 -4.341,3.566c-0.998,0.23 -2.298,0.26 -3.077,-0.585c-0.71,-1.209 -0.705,-2.335 0.015,-3.378c0.656,-1.391 1.811,-1.579 3.465,-0.562c-0.189,0.536 0.663,0.767 0.85,0.234c0.516,-1.463 -0.738,-2.688 -2.228,-2.434c-1.787,0.304 -3.323,2.479 -3.54,4.173c-0.634,4.946 5.964,3.618 8.207,1.563c2.694,-2.469 2.464,-7.99 -1.055,-9.615c-2.071,-0.955 -4.856,-0.683 -7.051,-0.426c-2.008,0.236 -3.999,0.81 -5.574,2.131c-3.561,2.985 -3.646,8.436 -1.988,12.45c1.936,4.688 6.532,7.158 11.466,7.265c11.683,0.251 21.201,-9.447 29.3,-16.612c2.849,-2.522 6.775,-6.56 11.015,-5.674c3.982,0.833 6.085,5.256 6.527,8.926c0.473,3.932 -0.448,8.571 -3.2,11.563c-1.431,1.557 -3.508,2.767 -5.628,1.841c-1.925,-0.84 -2.922,-2.683 -3.226,-4.686c-0.085,-0.559 -0.935,-0.322 -0.85,0.235Z" style="fill:url(#_Linear1);"/><path d="M44.006,14.141c-1.403,-3.947 -0.643,-8.171 2.113,-11.343c0.37,-0.427 -0.251,-1.054 -0.625,-0.624c-2.95,3.395 -3.849,7.952 -2.339,12.201c0.189,0.531 1.041,0.303 0.851,-0.234Z" style="fill:url(#_Linear2);"/><path d="M45.585,1.825c-15.053,0 -30.106,0 -45.159,0c-0.568,0 -0.569,0.882 0,0.882c15.053,0 30.106,0 45.159,0c0.568,0 0.569,-0.882 0,-0.882Z" style="fill:url(#_Linear3);"/><path d="M13.739,6.93c0,-1.324 1.073,-2.398 2.398,-2.398c1.324,0 2.397,1.074 2.397,2.398c0,1.324 -1.073,2.397 -2.397,2.397c-1.325,0 -2.398,-1.073 -2.398,-2.397Z" style="fill:url(#_Linear4);"/><path d="M6.395,6.33c0,-0.993 0.806,-1.798 1.799,-1.798c0.993,0 1.798,0.805 1.798,1.798c0,0.993 -0.805,1.799 -1.798,1.799c-0.993,0 -1.799,-0.806 -1.799,-1.799Z" style="fill:url(#_Linear5);"/><path d="M0.001,5.731c0,-0.663 0.536,-1.199 1.199,-1.199c0.662,0 1.199,0.536 1.199,1.199c0,0.662 -0.537,1.199 -1.199,1.199c-0.663,0 -1.199,-0.537 -1.199,-1.199Z" style="fill:url(#_Linear6);"/><path d="M110.15,39.923c0,0 -0.21,-1.373 -0.451,-3.433c-0.128,-1.029 -0.281,-2.23 -0.409,-3.517c-0.148,-1.287 -0.253,-2.66 -0.375,-4.033c-0.103,-1.373 -0.402,-2.746 -0.426,-4.033c-0.009,-1.287 0.194,-2.488 0.421,-3.517c0.233,-1.031 0.529,-1.888 0.784,-2.489c0.25,-0.6 0.456,-0.944 0.456,-0.944l0.353,0c0,0 0.207,0.344 0.457,0.944c0.255,0.601 0.551,1.458 0.784,2.489c0.227,1.029 0.431,2.23 0.421,3.517c-0.024,1.287 -0.323,2.66 -0.427,4.033c-0.122,1.373 -0.226,2.746 -0.374,4.033c-0.128,1.287 -0.281,2.488 -0.409,3.517c-0.241,2.06 -0.452,3.433 -0.452,3.433l-0.353,0Z" style="fill:url(#_Linear7);"/><path d="M108.8,17.18c0,0 -0.091,0.276 -0.25,0.761c-0.08,0.243 -0.168,0.537 -0.312,0.867c-0.14,0.33 -0.279,0.716 -0.468,1.116c-0.196,0.394 -0.382,0.841 -0.633,1.284c-0.245,0.446 -0.509,0.916 -0.826,1.377c-0.296,0.475 -0.647,0.936 -1.005,1.405c-0.372,0.458 -0.756,0.925 -1.183,1.355l-0.638,0.649c-0.226,0.204 -0.451,0.407 -0.675,0.609c-0.459,0.391 -0.929,0.768 -1.436,1.053c-1,0.599 -2.079,0.898 -2.993,1.051c-0.467,0.052 -0.886,0.11 -1.267,0.084c-0.38,-0.021 -0.702,-0.016 -0.97,-0.084c-0.532,-0.101 -0.82,-0.193 -0.82,-0.193l0.002,-0.177c0,0 0.291,-0.115 0.773,-0.261c0.242,-0.059 0.526,-0.196 0.848,-0.303c0.325,-0.093 0.669,-0.285 1.05,-0.424c0.192,-0.068 0.379,-0.185 0.577,-0.279c0.198,-0.094 0.409,-0.171 0.608,-0.296c0.202,-0.12 0.413,-0.229 0.629,-0.338c0.211,-0.121 0.427,-0.246 0.646,-0.372c0.448,-0.235 0.899,-0.512 1.365,-0.787c0.462,-0.285 0.909,-0.611 1.34,-0.965c0.435,-0.347 0.838,-0.739 1.233,-1.124c0.383,-0.4 0.764,-0.794 1.093,-1.21c0.354,-0.399 0.643,-0.825 0.943,-1.213c0.303,-0.388 0.54,-0.787 0.787,-1.141c0.238,-0.358 0.422,-0.704 0.605,-1.004c0.184,-0.297 0.318,-0.578 0.44,-0.802c0.238,-0.45 0.375,-0.708 0.375,-0.708l0.162,0.07Z" style="fill:url(#_Linear8);"/><path d="M107.11,3.605c0,-1.777 1.44,-3.217 3.217,-3.217c1.776,0 3.217,1.44 3.217,3.217c0,1.777 -1.441,3.217 -3.217,3.217c-1.777,0 -3.217,-1.44 -3.217,-3.217Z" style="fill:url(#_Linear9);"/><path d="M108.291,12.222c0,-1.125 0.911,-2.036 2.036,-2.036c1.125,0 2.036,0.911 2.036,2.036c0,1.125 -0.911,2.036 -2.036,2.036c-1.125,0 -2.036,-0.911 -2.036,-2.036Z" style="fill:url(#_Linear10);"/><path d="M126.734,18.578c-0.561,3.7 -4.032,6.428 -7.519,4.052c-3.076,-2.096 -4.422,-6.411 -4.63,-9.939c-0.206,-3.505 0.72,-7.362 3.3,-9.884c2.939,-2.873 6.674,-2.083 9.79,0.062c5.289,3.644 9.705,8.558 14.806,12.471c4.526,3.47 9.612,6.657 15.332,7.598c4.703,0.773 9.86,-0.022 13.17,-3.733c2.955,-3.311 4.039,-8.868 2.123,-12.942c-2.083,-4.429 -7.041,-5.148 -11.438,-5.046c-4.354,0.099 -7.07,3.177 -5.911,7.601c0.907,3.466 8.652,7.339 9.732,2.151c0.396,-1.901 -1.05,-4.225 -2.765,-5.028c-1.58,-0.741 -3.634,0.273 -2.964,2.172c0.187,0.532 1.04,0.303 0.85,-0.234c0.92,-0.117 1.839,-0.234 2.759,-0.352c0.545,0.563 0.939,1.216 1.182,1.961c0.452,1.951 -0.703,2.785 -2.235,3.063c-1.503,0.272 -3.596,-0.923 -4.611,-1.976c-2.222,-2.303 -1.654,-7.095 1.556,-8.172c1.977,-0.663 4.867,-0.397 6.903,-0.041c2.845,0.497 5.294,2.012 6.37,4.801c1.932,5.004 -0.49,11.32 -5.198,13.783c-4.694,2.457 -10.53,1.396 -15.163,-0.645c-4.757,-2.095 -8.942,-5.34 -12.885,-8.673c-3.79,-3.204 -7.305,-7.02 -11.476,-9.73c-3.216,-2.092 -6.99,-2.808 -10.098,-0.133c-3.275,2.819 -4.356,7.5 -3.955,11.649c0.382,3.966 2.219,8.909 6.16,10.62c3.793,1.647 7.116,-1.595 7.667,-5.221c0.084,-0.556 -0.766,-0.795 -0.852,-0.235Z" style="fill:url(#_Linear11);"/><path d="M177.499,14.375c1.511,-4.25 0.611,-8.805 -2.34,-12.201c-0.373,-0.429 -0.994,0.197 -0.623,0.624c2.755,3.172 3.515,7.396 2.112,11.343c-0.19,0.536 0.662,0.766 0.851,0.234Z" style="fill:url(#_Linear12);"/><path d="M175.069,2.707c15.053,0 30.107,0 45.159,0c0.568,0 0.569,-0.882 0,-0.882c-15.052,0 -30.106,0 -45.159,0c-0.568,0 -0.568,0.882 0,0.882Z" style="fill:url(#_Linear13);"/><path d="M206.915,6.93c0,-1.324 -1.073,-2.398 -2.398,-2.398c-1.324,0 -2.397,1.074 -2.397,2.398c0,1.324 1.073,2.397 2.397,2.397c1.325,0 2.398,-1.073 2.398,-2.397Z" style="fill:url(#_Linear14);"/><path d="M214.259,6.33c0,-0.993 -0.805,-1.798 -1.798,-1.798c-0.993,0 -1.799,0.805 -1.799,1.798c0,0.993 0.806,1.799 1.799,1.799c0.993,0 1.798,-0.806 1.798,-1.799Z" style="fill:url(#_Linear15);"/><path d="M220.653,5.731c0,-0.663 -0.537,-1.199 -1.199,-1.199c-0.662,0 -1.199,0.536 -1.199,1.199c0,0.662 0.537,1.199 1.199,1.199c0.662,0 1.199,-0.537 1.199,-1.199Z" style="fill:url(#_Linear16);"/><path d="M112.016,17.11c0,0 0.136,0.258 0.374,0.708c0.123,0.224 0.257,0.505 0.441,0.802c0.183,0.3 0.367,0.646 0.605,1.004c0.246,0.354 0.485,0.753 0.787,1.141c0.3,0.388 0.588,0.814 0.943,1.213c0.329,0.416 0.71,0.81 1.093,1.21c0.395,0.385 0.798,0.777 1.233,1.124c0.431,0.354 0.878,0.68 1.34,0.965c0.466,0.275 0.917,0.552 1.365,0.787c0.219,0.126 0.435,0.251 0.646,0.372c0.216,0.109 0.427,0.218 0.629,0.338c0.2,0.125 0.41,0.202 0.608,0.296c0.198,0.094 0.385,0.211 0.577,0.279c0.381,0.139 0.726,0.331 1.051,0.424c0.321,0.107 0.605,0.244 0.847,0.303c0.482,0.146 0.774,0.261 0.774,0.261l0.001,0.177c0,0 -0.288,0.092 -0.82,0.193c-0.269,0.068 -0.59,0.063 -0.97,0.084c-0.381,0.026 -0.8,-0.032 -1.267,-0.084c-0.914,-0.153 -1.994,-0.452 -2.993,-1.051c-0.507,-0.285 -0.977,-0.662 -1.436,-1.053c-0.224,-0.202 -0.45,-0.405 -0.675,-0.609l-0.639,-0.649c-0.426,-0.43 -0.809,-0.897 -1.182,-1.355c-0.358,-0.469 -0.709,-0.93 -1.005,-1.405c-0.317,-0.461 -0.581,-0.931 -0.827,-1.377c-0.251,-0.443 -0.435,-0.89 -0.632,-1.284c-0.189,-0.4 -0.328,-0.786 -0.468,-1.116c-0.144,-0.33 -0.232,-0.624 -0.313,-0.867c-0.159,-0.485 -0.249,-0.761 -0.249,-0.761l0.162,-0.07Z" style="fill:url(#_Linear17);"/><defs><linearGradient id="_Linear1" x1="0" y1="0" x2="1" y2="0" gradientUnits="userSpaceOnUse" gradientTransform="matrix(60.3656,0,0,60.3656,46.6234,12.2426)"><stop offset="0" style="stop-color:#daa45a;stop-opacity:1"/><stop offset="0.1" style="stop-color:#f3c14e;stop-opacity:1"/><stop offset="0.2" style="stop-color:#fed469;stop-opacity:1"/><stop offset="0.3" style="stop-color:#fed77e;stop-opacity:1"/><stop offset="0.4" style="stop-color:#fed052;stop-opacity:1"/><stop offset="0.5" style="stop-color:#f5bb53;stop-opacity:1"/><stop offset="0.6" style="stop-color:#f9cb76;stop-opacity:1"/><stop offset="0.7" style="stop-color:#fed571;stop-opacity:1"/><stop offset="0.8" style="stop-color:#f5c24e;stop-opacity:1"/><stop offset="0.9" style="stop-color:#e2ad55;stop-opacity:1"/><stop offset="1" style="stop-color:#fecf4c;stop-opacity:1"/></linearGradient><linearGradient id="_Linear2" x1="0" y1="0" x2="1" y2="0" gradientUnits="userSpaceOnUse" gradientTransform="matrix(3.7987,0,0,3.7987,42.4344,8.35265)"><stop offset="0" style="stop-color:#daa45a;stop-opacity:1"/><stop offset="0.1" style="stop-color:#f3c14e;stop-opacity:1"/><stop offset="0.2" style="stop-color:#fed469;stop-opacity:1"/><stop offset="0.3" style="stop-color:#fed77e;stop-opacity:1"/><stop offset="0.4" style="stop-color:#fed052;stop-opacity:1"/><stop offset="0.5" style="stop-color:#f5bb53;stop-opacity:1"/><stop offset="0.6" style="stop-color:#f9cb76;stop-opacity:1"/><stop offset="0.7" style="stop-color:#fed571;stop-opacity:1"/><stop offset="0.8" style="stop-color:#f5c24e;stop-opacity:1"/><stop offset="0.9" style="stop-color:#e2ad55;stop-opacity:1"/><stop offset="1" style="stop-color:#fecf4c;stop-opacity:1"/></linearGradient><linearGradient id="_Linear3" x1="0" y1="0" x2="1" y2="0" gradientUnits="userSpaceOnUse" gradientTransform="matrix(46.0117,0,0,46.0117,-0.000626412,2.26565)"><stop offset="0" style="stop-color:#daa45a;stop-opacity:1"/><stop offset="0.1" style="stop-color:#f3c14e;stop-opacity:1"/><stop offset="0.2" style="stop-color:#fed469;stop-opacity:1"/><stop offset="0.3" style="stop-color:#fed77e;stop-opacity:1"/><stop offset="0.4" style="stop-color:#fed052;stop-opacity:1"/><stop offset="0.5" style="stop-color:#f5bb53;stop-opacity:1"/><stop offset="0.6" style="stop-color:#f9cb76;stop-opacity:1"/><stop offset="0.7" style="stop-color:#fed571;stop-opacity:1"/><stop offset="0.8" style="stop-color:#f5c24e;stop-opacity:1"/><stop offset="0.9" style="stop-color:#e2ad55;stop-opacity:1"/><stop offset="1" style="stop-color:#fecf4c;stop-opacity:1"/></linearGradient><linearGradient id="_Linear4" x1="0" y1="0" x2="1" y2="0" gradientUnits="userSpaceOnUse" gradientTransform="matrix(4.7957,0,0,4.7957,13.7394,6.92965)"><stop offset="0" style="stop-color:#daa45a;stop-opacity:1"/><stop offset="0.1" style="stop-color:#f3c14e;stop-opacity:1"/><stop offset="0.2" style="stop-color:#fed469;stop-opacity:1"/><stop offset="0.3" style="stop-color:#fed77e;stop-opacity:1"/><stop offset="0.4" style="stop-color:#fed052;stop-opacity:1"/><stop offset="0.5" style="stop-color:#f5bb53;stop-opacity:1"/><stop offset="0.6" style="stop-color:#f9cb76;stop-opacity:1"/><stop offset="0.7" style="stop-color:#fed571;stop-opacity:1"/><stop offset="0.8" style="stop-color:#f5c24e;stop-opacity:1"/><stop offset="0.9" style="stop-color:#e2ad55;stop-opacity:1"/><stop offset="1" style="stop-color:#fecf4c;stop-opacity:1"/></linearGradient><linearGradient id="_Linear5" x1="0" y1="0" x2="1" y2="0" gradientUnits="userSpaceOnUse" gradientTransform="matrix(3.5968,0,0,3.5968,6.39537,6.32965)"><stop offset="0" style="stop-color:#daa45a;stop-opacity:1"/><stop offset="0.1" style="stop-color:#f3c14e;stop-opacity:1"/><stop offset="0.2" style="stop-color:#fed469;stop-opacity:1"/><stop offset="0.3" style="stop-color:#fed77e;stop-opacity:1"/><stop offset="0.4" style="stop-color:#fed052;stop-opacity:1"/><stop offset="0.5" style="stop-color:#f5bb53;stop-opacity:1"/><stop offset="0.6" style="stop-color:#f9cb76;stop-opacity:1"/><stop offset="0.7" style="stop-color:#fed571;stop-opacity:1"/><stop offset="0.8" style="stop-color:#f5c24e;stop-opacity:1"/><stop offset="0.9" style="stop-color:#e2ad55;stop-opacity:1"/><stop offset="1" style="stop-color:#fecf4c;stop-opacity:1"/></linearGradient><linearGradient id="_Linear6" x1="0" y1="0" x2="1" y2="0" gradientUnits="userSpaceOnUse" gradientTransform="matrix(2.39791,0,0,2.39791,0.00137359,5.73065)"><stop offset="0" style="stop-color:#daa45a;stop-opacity:1"/><stop offset="0.1" style="stop-color:#f3c14e;stop-opacity:1"/><stop offset="0.2" style="stop-color:#fed469;stop-opacity:1"/><stop offset="0.3" style="stop-color:#fed77e;stop-opacity:1"/><stop offset="0.4" style="stop-color:#fed052;stop-opacity:1"/><stop offset="0.5" style="stop-color:#f5bb53;stop-opacity:1"/><stop offset="0.6" style="stop-color:#f9cb76;stop-opacity:1"/><stop offset="0.7" style="stop-color:#fed571;stop-opacity:1"/><stop offset="0.8" style="stop-color:#f5c24e;stop-opacity:1"/><stop offset="0.9" style="stop-color:#e2ad55;stop-opacity:1"/><stop offset="1" style="stop-color:#fecf4c;stop-opacity:1"/></linearGradient><linearGradient id="_Linear7" x1="0" y1="0" x2="1" y2="0" gradientUnits="userSpaceOnUse" gradientTransform="matrix(3.67717,0,0,3.67717,108.488,28.9396)"><stop offset="0" style="stop-color:#daa45a;stop-opacity:1"/><stop offset="0.1" style="stop-color:#f3c14e;stop-opacity:1"/><stop offset="0.2" style="stop-color:#fed469;stop-opacity:1"/><stop offset="0.3" style="stop-color:#fed77e;stop-opacity:1"/><stop offset="0.4" style="stop-color:#fed052;stop-opacity:1"/><stop offset="0.5" style="stop-color:#f5bb53;stop-opacity:1"/><stop offset="0.6" style="stop-color:#f9cb76;stop-opacity:1"/><stop offset="0.7" style="stop-color:#fed571;stop-opacity:1"/><stop offset="0.8" style="stop-color:#f5c24e;stop-opacity:1"/><stop offset="0.9" style="stop-color:#e2ad55;stop-opacity:1"/><stop offset="1" style="stop-color:#fecf4c;stop-opacity:1"/></linearGradient><linearGradient id="_Linear8" x1="0" y1="0" x2="1" y2="0" gradientUnits="userSpaceOnUse" gradientTransform="matrix(13.4764,0,0,13.4764,95.3244,22.9536)"><stop offset="0" style="stop-color:#daa45a;stop-opacity:1"/><stop offset="0.1" style="stop-color:#f3c14e;stop-opacity:1"/><stop offset="0.2" style="stop-color:#fed469;stop-opacity:1"/><stop offset="0.3" style="stop-color:#fed77e;stop-opacity:1"/><stop offset="0.4" style="stop-color:#fed052;stop-opacity:1"/><stop offset="0.5" style="stop-color:#f5bb53;stop-opacity:1"/><stop offset="0.6" style="stop-color:#f9cb76;stop-opacity:1"/><stop offset="0.7" style="stop-color:#fed571;stop-opacity:1"/><stop offset="0.8" style="stop-color:#f5c24e;stop-opacity:1"/><stop offset="0.9" style="stop-color:#e2ad55;stop-opacity:1"/><stop offset="1" style="stop-color:#fecf4c;stop-opacity:1"/></linearGradient><linearGradient id="_Linear9" x1="0" y1="0" x2="1" y2="0" gradientUnits="userSpaceOnUse" gradientTransform="matrix(6.43439,0,0,6.43439,107.11,3.60465)"><stop offset="0" style="stop-color:#daa45a;stop-opacity:1"/><stop offset="0.1" style="stop-color:#f3c14e;stop-opacity:1"/><stop offset="0.2" style="stop-color:#fed469;stop-opacity:1"/><stop offset="0.3" style="stop-color:#fed77e;stop-opacity:1"/><stop offset="0.4" style="stop-color:#fed052;stop-opacity:1"/><stop offset="0.5" style="stop-color:#f5bb53;stop-opacity:1"/><stop offset="0.6" style="stop-color:#f9cb76;stop-opacity:1"/><stop offset="0.7" style="stop-color:#fed571;stop-opacity:1"/><stop offset="0.8" style="stop-color:#f5c24e;stop-opacity:1"/><stop offset="0.9" style="stop-color:#e2ad55;stop-opacity:1"/><stop offset="1" style="stop-color:#fecf4c;stop-opacity:1"/></linearGradient><linearGradient id="_Linear10" x1="0" y1="0" x2="1" y2="0" gradientUnits="userSpaceOnUse" gradientTransform="matrix(4.0726,0,0,4.0726,108.291,12.2216)"><stop offset="0" style="stop-color:#daa45a;stop-opacity:1"/><stop offset="0.1" style="stop-color:#f3c14e;stop-opacity:1"/><stop offset="0.2" style="stop-color:#fed469;stop-opacity:1"/><stop offset="0.3" style="stop-color:#fed77e;stop-opacity:1"/><stop offset="0.4" style="stop-color:#fed052;stop-opacity:1"/><stop offset="0.5" style="stop-color:#f5bb53;stop-opacity:1"/><stop offset="0.6" style="stop-color:#f9cb76;stop-opacity:1"/><stop offset="0.7" style="stop-color:#fed571;stop-opacity:1"/><stop offset="0.8" style="stop-color:#f5c24e;stop-opacity:1"/><stop offset="0.9" style="stop-color:#e2ad55;stop-opacity:1"/><stop offset="1" style="stop-color:#fecf4c;stop-opacity:1"/></linearGradient><linearGradient id="_Linear11" x1="0" y1="0" x2="1" y2="0" gradientUnits="userSpaceOnUse" gradientTransform="matrix(60.3856,0,0,60.3856,113.679,12.2516)"><stop offset="0" style="stop-color:#daa45a;stop-opacity:1"/><stop offset="0.1" style="stop-color:#f3c14e;stop-opacity:1"/><stop offset="0.2" style="stop-color:#fed469;stop-opacity:1"/><stop offset="0.3" style="stop-color:#fed77e;stop-opacity:1"/><stop offset="0.4" style="stop-color:#fed052;stop-opacity:1"/><stop offset="0.5" style="stop-color:#f5bb53;stop-opacity:1"/><stop offset="0.6" style="stop-color:#f9cb76;stop-opacity:1"/><stop offset="0.7" style="stop-color:#fed571;stop-opacity:1"/><stop offset="0.8" style="stop-color:#f5c24e;stop-opacity:1"/><stop offset="0.9" style="stop-color:#e2ad55;stop-opacity:1"/><stop offset="1" style="stop-color:#fecf4c;stop-opacity:1"/></linearGradient><linearGradient id="_Linear12" x1="0" y1="0" x2="1" y2="0" gradientUnits="userSpaceOnUse" gradientTransform="matrix(3.79897,0,0,3.79897,174.422,8.35265)"><stop offset="0" style="stop-color:#daa45a;stop-opacity:1"/><stop offset="0.1" style="stop-color:#f3c14e;stop-opacity:1"/><stop offset="0.2" style="stop-color:#fed469;stop-opacity:1"/><stop offset="0.3" style="stop-color:#fed77e;stop-opacity:1"/><stop offset="0.4" style="stop-color:#fed052;stop-opacity:1"/><stop offset="0.5" style="stop-color:#f5bb53;stop-opacity:1"/><stop offset="0.6" style="stop-color:#f9cb76;stop-opacity:1"/><stop offset="0.7" style="stop-color:#fed571;stop-opacity:1"/><stop offset="0.8" style="stop-color:#f5c24e;stop-opacity:1"/><stop offset="0.9" style="stop-color:#e2ad55;stop-opacity:1"/><stop offset="1" style="stop-color:#fecf4c;stop-opacity:1"/></linearGradient><linearGradient id="_Linear13" x1="0" y1="0" x2="1" y2="0" gradientUnits="userSpaceOnUse" gradientTransform="matrix(46.0117,0,0,46.0117,174.643,2.26565)"><stop offset="0" style="stop-color:#daa45a;stop-opacity:1"/><stop offset="0.1" style="stop-color:#f3c14e;stop-opacity:1"/><stop offset="0.2" style="stop-color:#fed469;stop-opacity:1"/><stop offset="0.3" style="stop-color:#fed77e;stop-opacity:1"/><stop offset="0.4" style="stop-color:#fed052;stop-opacity:1"/><stop offset="0.5" style="stop-color:#f5bb53;stop-opacity:1"/><stop offset="0.6" style="stop-color:#f9cb76;stop-opacity:1"/><stop offset="0.7" style="stop-color:#fed571;stop-opacity:1"/><stop offset="0.8" style="stop-color:#f5c24e;stop-opacity:1"/><stop offset="0.9" style="stop-color:#e2ad55;stop-opacity:1"/><stop offset="1" style="stop-color:#fecf4c;stop-opacity:1"/></linearGradient><linearGradient id="_Linear14" x1="0" y1="0" x2="1" y2="0" gradientUnits="userSpaceOnUse" gradientTransform="matrix(4.7957,0,0,4.7957,202.12,6.92965)"><stop offset="0" style="stop-color:#daa45a;stop-opacity:1"/><stop offset="0.1" style="stop-color:#f3c14e;stop-opacity:1"/><stop offset="0.2" style="stop-color:#fed469;stop-opacity:1"/><stop offset="0.3" style="stop-color:#fed77e;stop-opacity:1"/><stop offset="0.4" style="stop-color:#fed052;stop-opacity:1"/><stop offset="0.5" style="stop-color:#f5bb53;stop-opacity:1"/><stop offset="0.6" style="stop-color:#f9cb76;stop-opacity:1"/><stop offset="0.7" style="stop-color:#fed571;stop-opacity:1"/><stop offset="0.8" style="stop-color:#f5c24e;stop-opacity:1"/><stop offset="0.9" style="stop-color:#e2ad55;stop-opacity:1"/><stop offset="1" style="stop-color:#fecf4c;stop-opacity:1"/></linearGradient><linearGradient id="_Linear15" x1="0" y1="0" x2="1" y2="0" gradientUnits="userSpaceOnUse" gradientTransform="matrix(3.59682,0,0,3.59682,210.662,6.32965)"><stop offset="0" style="stop-color:#daa45a;stop-opacity:1"/><stop offset="0.1" style="stop-color:#f3c14e;stop-opacity:1"/><stop offset="0.2" style="stop-color:#fed469;stop-opacity:1"/><stop offset="0.3" style="stop-color:#fed77e;stop-opacity:1"/><stop offset="0.4" style="stop-color:#fed052;stop-opacity:1"/><stop offset="0.5" style="stop-color:#f5bb53;stop-opacity:1"/><stop offset="0.6" style="stop-color:#f9cb76;stop-opacity:1"/><stop offset="0.7" style="stop-color:#fed571;stop-opacity:1"/><stop offset="0.8" style="stop-color:#f5c24e;stop-opacity:1"/><stop offset="0.9" style="stop-color:#e2ad55;stop-opacity:1"/><stop offset="1" style="stop-color:#fecf4c;stop-opacity:1"/></linearGradient><linearGradient id="_Linear16" x1="0" y1="0" x2="1" y2="0" gradientUnits="userSpaceOnUse" gradientTransform="matrix(2.3979,0,0,2.3979,218.255,5.73065)"><stop offset="0" style="stop-color:#daa45a;stop-opacity:1"/><stop offset="0.1" style="stop-color:#f3c14e;stop-opacity:1"/><stop offset="0.2" style="stop-color:#fed469;stop-opacity:1"/><stop offset="0.3" style="stop-color:#fed77e;stop-opacity:1"/><stop offset="0.4" style="stop-color:#fed052;stop-opacity:1"/><stop offset="0.5" style="stop-color:#f5bb53;stop-opacity:1"/><stop offset="0.6" style="stop-color:#f9cb76;stop-opacity:1"/><stop offset="0.7" style="stop-color:#fed571;stop-opacity:1"/><stop offset="0.8" style="stop-color:#f5c24e;stop-opacity:1"/><stop offset="0.9" style="stop-color:#e2ad55;stop-opacity:1"/><stop offset="1" style="stop-color:#fecf4c;stop-opacity:1"/></linearGradient><linearGradient id="_Linear17" x1="0" y1="0" x2="1" y2="0" gradientUnits="userSpaceOnUse" gradientTransform="matrix(13.4765,0,0,13.4765,111.854,22.9536)"><stop offset="0" style="stop-color:#daa45a;stop-opacity:1"/><stop offset="0.1" style="stop-color:#f3c14e;stop-opacity:1"/><stop offset="0.2" style="stop-color:#fed469;stop-opacity:1"/><stop offset="0.3" style="stop-color:#fed77e;stop-opacity:1"/><stop offset="0.4" style="stop-color:#fed052;stop-opacity:1"/><stop offset="0.5" style="stop-color:#f5bb53;stop-opacity:1"/><stop offset="0.6" style="stop-color:#f9cb76;stop-opacity:1"/><stop offset="0.7" style="stop-color:#fed571;stop-opacity:1"/><stop offset="0.8" style="stop-color:#f5c24e;stop-opacity:1"/><stop offset="0.9" style="stop-color:#e2ad55;stop-opacity:1"/><stop offset="1" style="stop-color:#fecf4c;stop-opacity:1"/></linearGradient></defs></svg>