<?xml version="1.0" encoding="UTF-8" standalone="no"?><!DOCTYPE svg PUBLIC "-//W3C//DTD SVG 1.1//EN" "http://www.w3.org/Graphics/SVG/1.1/DTD/svg11.dtd"><svg width="100%" height="100%" viewBox="0 0 182 34" version="1.1" xmlns="http://www.w3.org/2000/svg" xmlns:xlink="http://www.w3.org/1999/xlink" xml:space="preserve" xmlns:serif="http://www.serif.com/" style="fill-rule:evenodd;clip-rule:evenodd;stroke-linejoin:round;stroke-miterlimit:1.41421;"><path d="M150.791,22.615c-0.154,-0.686 0.01,-1.443 0.409,-2.021c0.297,-0.429 0.755,-0.76 1.271,-0.845c0.638,-0.104 1.285,0.235 1.54,0.833c0.257,0.603 0.058,1.444 -0.62,1.659c-0.264,0.083 -0.618,0.134 -0.74,0.422c-0.041,0.097 -0.021,0.211 0.029,0.304c0.297,0.549 1.028,0.362 1.478,0.139c0.414,-0.205 0.747,-0.553 0.956,-0.962c0.413,-0.804 0.358,-1.737 -0.143,-2.433c-0.556,-0.773 -1.434,-1.215 -2.408,-1.215c-1.248,0 -2.392,0.704 -2.913,1.793c-0.709,1.481 -0.36,2.986 0.459,4.175c-3.138,-2.254 -6.589,-4.597 -10.342,-5.399c0.454,-0.093 0.908,-0.199 1.358,-0.331c1.223,-0.358 2.596,-0.958 4.049,-1.594c2.661,-1.163 5.678,-2.481 8.322,-2.481c2.22,0 3.917,0.918 5.187,2.807c0.909,1.353 1.558,3.405 0.654,5.107c-0.753,1.421 -2.503,2.913 -4.391,3.019l-0.167,0.005c-1.704,0 -3.61,-1.308 -3.988,-2.982Zm-22.11,-0.241c-0.781,-1.226 -1.665,-2.279 -2.278,-2.957c-0.988,-1.092 -2.079,-2.015 -3.253,-2.808l0.208,0.011c0.641,0 1.245,-0.082 1.794,-0.246c1.79,-0.532 3.309,-1.92 4.246,-3.717c-0.034,0.348 -0.039,0.692 0.001,1.021c0.435,3.558 2.737,4.945 4.921,5.448c-2.039,0.526 -4.005,1.65 -5.639,3.248Zm0.179,6.162c-0.23,0.417 -1.104,1.08 -1.705,1.08c-0.214,0 -0.367,-0.082 -0.467,-0.252c-0.348,-0.591 0.533,-2.214 0.865,-2.825l0.069,-0.131c0.286,-0.533 0.601,-1.042 0.94,-1.518c0.685,1.532 0.786,2.758 0.298,3.646Zm-8.378,-14.154c-0.793,-0.466 -1.295,-1.157 -1.412,-1.945c-0.117,-0.789 0.163,-1.596 0.788,-2.272c0.492,-0.533 0.99,-0.803 1.482,-0.803c0.808,0 1.575,0.775 2.006,2.023c0.069,0.2 0.234,0.324 0.432,0.324c0.139,0 0.274,-0.063 0.364,-0.168c0.09,-0.108 0.126,-0.249 0.099,-0.398c-0.318,-1.853 -1.339,-2.916 -2.797,-2.916c-1.206,0 -2.512,0.772 -3.251,1.923c-0.715,1.11 -0.812,2.372 -0.274,3.554c0.101,0.221 0.228,0.424 0.363,0.619c-1.705,-0.511 -3.549,-0.828 -5.565,-0.929c-0.45,-0.023 -0.9,-0.034 -1.351,-0.034c-1.951,0 -3.871,0.216 -5.731,0.622c1.868,-4.752 5.617,-9.201 9.71,-11.262c1.51,-0.76 3.316,-1.179 5.085,-1.179c3.444,0 6.222,1.467 7.621,4.024c1.093,1.995 0.985,4.657 -0.274,6.781c-1.059,1.787 -2.748,2.854 -4.515,2.854c-0.921,0 -1.857,-0.275 -2.78,-0.818Zm-12.221,16.232c-1.702,-1.13 -2.913,-3.024 -3.521,-5.505c1.649,0.948 3.471,2.641 3.521,5.505Zm-5.088,-14.097c-0.442,2.051 -0.584,4.291 -0.4,6.331c-1.555,-0.517 -3.26,-0.79 -4.947,-0.79c-1.728,0 -3.351,0.281 -4.757,0.811c2.054,-2.605 5.157,-4.857 8.886,-6.372c0.444,-0.18 0.898,-0.344 1.359,-0.5c-0.044,0.175 -0.103,0.342 -0.141,0.52Zm-19.416,5.541c-1.687,0 -3.392,0.273 -4.946,0.79c0.182,-2.04 0.042,-4.28 -0.401,-6.331c-0.039,-0.178 -0.096,-0.345 -0.14,-0.52c0.461,0.156 0.915,0.32 1.357,0.5c3.731,1.515 6.834,3.768 8.888,6.373c-1.406,-0.53 -3.029,-0.812 -4.758,-0.812Zm-10.435,8.556c0.049,-2.863 1.872,-4.557 3.521,-5.505c-0.607,2.481 -1.818,4.375 -3.521,5.505Zm-3.105,-17.254c-0.451,0 -0.9,0.011 -1.352,0.034c-2.014,0.101 -3.86,0.418 -5.565,0.929c0.136,-0.195 0.263,-0.398 0.363,-0.619c0.538,-1.182 0.442,-2.444 -0.272,-3.554c-0.741,-1.151 -2.047,-1.923 -3.251,-1.923c-1.459,0 -2.48,1.063 -2.799,2.916c-0.025,0.149 0.011,0.29 0.101,0.398c0.088,0.105 0.224,0.168 0.363,0.168c0.197,0 0.363,-0.124 0.432,-0.324c0.43,-1.248 1.199,-2.023 2.006,-2.023c0.493,0 0.991,0.27 1.483,0.803c0.625,0.676 0.904,1.483 0.787,2.272c-0.116,0.788 -0.618,1.479 -1.411,1.945c-0.924,0.543 -1.86,0.818 -2.781,0.818c-1.768,0 -3.457,-1.067 -4.515,-2.854c-1.26,-2.124 -1.367,-4.786 -0.275,-6.782c1.399,-2.556 4.177,-4.023 7.621,-4.023c1.77,0 3.577,0.419 5.085,1.179c4.093,2.062 7.842,6.511 9.711,11.262c-1.861,-0.406 -3.78,-0.622 -5.731,-0.622Zm-15.037,6.057c-0.613,0.678 -1.496,1.731 -2.278,2.957c-1.633,-1.598 -3.6,-2.722 -5.64,-3.248c2.184,-0.503 4.486,-1.89 4.922,-5.448c0.041,-0.329 0.035,-0.673 0.002,-1.021c0.936,1.797 2.456,3.185 4.245,3.717c0.55,0.164 1.153,0.246 1.795,0.246l0.208,-0.011c-1.176,0.793 -2.266,1.716 -3.254,2.808Zm-1.22,6.991l0.07,0.131c0.332,0.611 1.213,2.234 0.865,2.825c-0.101,0.17 -0.253,0.252 -0.467,0.252c-0.602,0 -1.475,-0.663 -1.704,-1.08c-0.489,-0.888 -0.389,-2.114 0.297,-3.647c0.339,0.476 0.654,0.986 0.939,1.519Zm-22.485,-1.944c0.818,-1.188 1.168,-2.694 0.459,-4.175c-0.522,-1.089 -1.665,-1.793 -2.914,-1.793c-0.974,0 -1.852,0.442 -2.409,1.215c-0.5,0.696 -0.556,1.628 -0.144,2.433c0.439,0.857 1.359,1.337 2.31,1.092l0.244,-0.11c0.145,-0.124 0.127,-0.299 -0.014,-0.418c-0.168,-0.141 -0.412,-0.113 -0.616,-0.14c-0.199,-0.026 -0.398,-0.088 -0.558,-0.211c-0.229,-0.177 -0.394,-0.427 -0.479,-0.702c-0.273,-0.876 0.333,-1.777 1.224,-1.922c1.468,-0.238 2.555,1.605 2.24,2.888c-0.393,1.585 -2.269,2.976 -4.014,2.976l-0.168,-0.005c-1.887,-0.106 -3.638,-1.598 -4.391,-3.019c-0.903,-1.702 -0.253,-3.755 0.656,-5.107c1.269,-1.889 2.966,-2.807 5.186,-2.807c2.645,0 5.661,1.318 8.322,2.481c1.453,0.636 2.827,1.236 4.049,1.594c0.45,0.132 0.904,0.238 1.359,0.331c-3.754,0.801 -7.205,3.145 -10.342,5.399Zm148.389,-7.231c-1.237,-1.706 -3.52,-2.852 -5.679,-2.852c-1.907,0 -3.471,0.854 -4.408,2.405c-1.054,1.748 -0.355,4.254 0.959,5.499c0.637,0.602 1.409,0.92 2.233,0.92c0.861,0 1.746,-0.332 2.56,-0.961c0.175,-0.135 0.242,-0.36 0.169,-0.573c-0.066,-0.195 -0.229,-0.321 -0.413,-0.321l-0.258,0.083c-0.591,0.393 -1.216,0.6 -1.806,0.6c-1.379,0 -2.462,-1.113 -2.695,-2.769c-0.123,-0.867 0.114,-1.671 0.683,-2.326c0.735,-0.846 1.976,-1.372 3.239,-1.372c0.173,0 0.347,0.01 0.519,0.03c3.23,0.386 4.822,3.274 5.204,5.63c0.441,2.714 -0.243,5.227 -1.977,7.265c-2.155,2.532 -5.667,4.044 -9.426,4.044c-5.866,-0.013 -11.026,-2.776 -15.403,-5.759c0.458,0.126 0.926,0.208 1.401,0.208c1.073,0 2.176,-0.331 3.186,-0.957c2.109,-1.305 3.257,-3.439 3.152,-5.852c-0.112,-2.572 -1.664,-4.916 -4.05,-6.12c-1.162,-0.586 -2.381,-0.871 -3.725,-0.871c-2.764,0 -5.54,1.228 -8.224,2.415c-1.609,0.711 -3.128,1.383 -4.613,1.789c-1.465,0.399 -2.817,0.602 -4.018,0.602c-2.905,0 -4.741,-1.181 -5.459,-3.509c-0.564,-1.831 -0.23,-4.384 1.838,-5.662c0.462,-0.285 1.005,-0.436 1.573,-0.436c0.73,0 1.408,0.247 1.908,0.696c0.774,0.695 0.837,2.023 0.027,2.716c-0.418,0.359 -1.302,0.664 -1.612,0.013c-0.122,-0.258 -0.087,-0.57 0.037,-0.826c0.123,-0.252 0.254,-0.615 -0.179,-0.615c-0.097,0 -0.186,0.042 -0.249,0.119c-0.522,0.623 -0.675,1.419 -0.392,2.027c0.23,0.492 0.718,0.775 1.336,0.775c0.131,0 0.268,-0.013 0.416,-0.038c0.962,-0.168 1.769,-0.865 2.159,-1.865c0.379,-0.969 0.266,-1.988 -0.3,-2.726c-0.815,-1.063 -1.83,-1.625 -2.935,-1.625c-1.204,0 -2.492,0.674 -3.533,1.851c-0.316,0.356 -0.593,0.741 -0.826,1.127c0.377,-2.426 -0.235,-4.655 -1.769,-6.446c-1.886,-2.2 -5.097,-3.566 -8.381,-3.566c-0.501,0 -1.002,0.031 -1.489,0.094c-3.228,0.415 -6.146,2.1 -9.185,5.304c-1.958,2.064 -4.387,5.208 -5.705,9.073c-2.183,0.651 -4.266,1.576 -6.187,2.779c-3.284,2.053 -5.55,4.352 -6.776,6.837c-1.224,-2.485 -3.491,-4.784 -6.774,-6.837c-1.922,-1.203 -4.005,-2.128 -6.189,-2.779c-1.317,-3.865 -3.746,-7.009 -5.705,-9.073c-3.038,-3.204 -5.956,-4.889 -9.183,-5.304c-0.488,-0.063 -0.99,-0.094 -1.49,-0.094c-3.285,0 -6.496,1.366 -8.381,3.566c-1.535,1.791 -2.146,4.02 -1.766,6.46c-0.236,-0.4 -0.513,-0.785 -0.829,-1.141c-1.04,-1.177 -2.328,-1.851 -3.532,-1.851c-1.106,0 -2.121,0.562 -2.936,1.625c-0.565,0.738 -0.679,1.757 -0.301,2.726c0.391,1 1.198,1.697 2.16,1.865c0.147,0.025 0.286,0.038 0.415,0.038c0.62,0 1.107,-0.283 1.337,-0.775c0.147,-0.314 0.169,-0.672 0.102,-1.009c-0.057,-0.284 -0.269,-1.193 -0.72,-0.913l-0.139,0.159c-0.027,0.108 0.037,0.224 0.062,0.326c0.039,0.156 0.054,0.321 0.025,0.481c-0.129,0.757 -1.02,0.815 -1.557,0.447c-0.984,-0.672 -0.991,-2.16 -0.141,-2.925c0.5,-0.449 1.177,-0.696 1.907,-0.696c0.569,0 1.113,0.151 1.575,0.436c2.067,1.278 2.401,3.831 1.836,5.662c-0.717,2.328 -2.553,3.509 -5.457,3.509c-1.202,0 -2.552,-0.203 -4.019,-0.602c-1.485,-0.406 -3.005,-1.078 -4.614,-1.789c-2.685,-1.188 -5.459,-2.415 -8.224,-2.415c-1.344,0 -2.561,0.285 -3.724,0.871c-2.386,1.204 -3.938,3.549 -4.049,6.121c-0.107,2.413 1.043,4.546 3.15,5.851c1.012,0.626 2.113,0.957 3.188,0.957c0.474,0 0.941,-0.081 1.399,-0.208c-4.377,2.983 -9.54,5.746 -15.431,5.759c-3.729,0 -7.242,-1.512 -9.396,-4.044c-1.735,-2.038 -2.419,-4.551 -1.978,-7.265c0.382,-2.356 1.974,-5.244 5.204,-5.63c0.172,-0.02 0.346,-0.03 0.519,-0.03c1.262,0 2.503,0.526 3.238,1.372c0.57,0.655 0.806,1.459 0.684,2.326c-0.234,1.656 -1.316,2.769 -2.695,2.769c-0.59,0 -1.214,-0.207 -1.805,-0.6l-0.259,-0.083c-0.185,0 -0.348,0.126 -0.414,0.321c-0.073,0.213 -0.006,0.438 0.17,0.573c0.813,0.629 1.699,0.961 2.56,0.961c0.825,0 1.596,-0.318 2.233,-0.92c1.313,-1.245 2.013,-3.752 0.959,-5.499c-0.937,-1.551 -2.501,-2.405 -4.407,-2.405c-2.16,0 -4.443,1.146 -5.68,2.852c-2.171,2.992 -2.299,7.597 -0.307,10.951c2.515,4.233 7.593,5.742 11.507,5.742c0.409,0 0.815,-0.015 1.216,-0.045c4.921,-0.371 9.774,-2.35 15.276,-6.226c0.622,-0.438 1.266,-0.909 1.928,-1.394c3.914,-2.867 8.351,-6.117 13.037,-6.117c1.07,0 2.123,0.176 3.129,0.523c1.762,0.607 3.312,1.646 4.609,3.089c-1.107,2.217 -1.255,4.079 -0.441,5.537c0.494,0.884 1.678,1.823 2.896,1.823c0.211,0 0.417,-0.03 0.612,-0.088c1.061,-0.318 1.46,-1.447 1.063,-3.019c-0.409,-1.628 -1.244,-3.229 -2.417,-4.635c0.143,-0.234 0.283,-0.452 0.41,-0.649c1.479,-2.252 3.505,-4.255 5.709,-5.638c2.613,-1.641 5.998,-2.507 9.789,-2.507c2.227,0 4.531,0.309 6.724,0.879c0.168,0.55 0.318,1.101 0.43,1.65c0.431,2.115 0.519,4.391 0.249,6.419c-3.569,1.743 -5.421,4.729 -5.085,8.201c0.03,0.324 0.298,0.67 0.648,0.67l0.212,-0.043c3.823,-1.554 5.216,-5.224 5.708,-8.059c1.465,-0.521 3.122,-0.796 4.8,-0.796c2.592,0 4.989,0.664 6.576,1.822l0.213,0.108c0.093,0.074 0.2,0.126 0.333,0.126l0.248,-0.06l0.249,0.06c0.133,0 0.24,-0.052 0.333,-0.126l0.213,-0.108c1.587,-1.158 3.984,-1.822 6.576,-1.822c1.678,0 3.335,0.275 4.8,0.796c0.492,2.835 1.884,6.505 5.708,8.059l0.212,0.043c0.35,0 0.617,-0.346 0.648,-0.669c0.336,-3.473 -1.517,-6.459 -5.085,-8.202c-0.27,-2.028 -0.182,-4.304 0.249,-6.419c0.112,-0.549 0.261,-1.1 0.429,-1.65c2.194,-0.57 4.497,-0.879 6.725,-0.879c3.791,0 7.176,0.866 9.789,2.507c2.202,1.382 4.228,3.385 5.708,5.638c0.129,0.197 0.268,0.415 0.411,0.649c-1.173,1.406 -2.008,3.007 -2.417,4.635c-0.396,1.572 0.001,2.701 1.063,3.019c0.194,0.058 0.4,0.088 0.612,0.088c1.219,0 2.401,-0.939 2.896,-1.823c0.815,-1.458 0.666,-3.32 -0.441,-5.537c1.298,-1.443 2.848,-2.482 4.609,-3.089c1.006,-0.347 2.059,-0.523 3.129,-0.523c4.687,0 9.123,3.25 13.038,6.118c0.661,0.485 1.305,0.955 1.926,1.393c5.502,3.876 10.356,5.855 15.277,6.226c0.402,0.03 0.807,0.045 1.215,0.045c3.915,0 8.992,-1.509 11.508,-5.742c1.991,-3.355 1.863,-7.96 -0.307,-10.951Z" style="fill:url(#_Linear1);"/><defs><linearGradient id="_Linear1" x1="0" y1="0" x2="1" y2="0" gradientUnits="userSpaceOnUse" gradientTransform="matrix(181.582,0,0,181.582,-0.000122883,16.963)"><stop offset="0" style="stop-color:#daa45a;stop-opacity:1"/><stop offset="0.1" style="stop-color:#f3c14e;stop-opacity:1"/><stop offset="0.2" style="stop-color:#fed469;stop-opacity:1"/><stop offset="0.3" style="stop-color:#fed77e;stop-opacity:1"/><stop offset="0.4" style="stop-color:#fed052;stop-opacity:1"/><stop offset="0.5" style="stop-color:#f5bb53;stop-opacity:1"/><stop offset="0.6" style="stop-color:#f9cb76;stop-opacity:1"/><stop offset="0.7" style="stop-color:#fed571;stop-opacity:1"/><stop offset="0.8" style="stop-color:#f5c24e;stop-opacity:1"/><stop offset="0.9" style="stop-color:#e2ad55;stop-opacity:1"/><stop offset="1" style="stop-color:#fecf4c;stop-opacity:1"/></linearGradient></defs></svg>