<?xml version="1.0" encoding="UTF-8" standalone="no"?><!DOCTYPE svg PUBLIC "-//W3C//DTD SVG 1.1//EN" "http://www.w3.org/Graphics/SVG/1.1/DTD/svg11.dtd"><svg width="100%" height="100%" viewBox="0 0 176 19" version="1.1" xmlns="http://www.w3.org/2000/svg" xmlns:xlink="http://www.w3.org/1999/xlink" xml:space="preserve" xmlns:serif="http://www.serif.com/" style="fill-rule:evenodd;clip-rule:evenodd;stroke-linejoin:round;stroke-miterlimit:1.41421;"><path d="M42.205,13.719c-0.322,0.798 0.034,1.458 0.237,2.121c0.118,0.38 0.37,0.708 0.855,0.53c0.459,-0.168 0.727,-0.507 0.544,-1.004c-0.283,-0.771 -0.686,-1.455 -1.636,-1.647Zm15.128,3.48c0.5,-0.14 1.43,0.022 1.832,-0.773c0.36,-0.712 -0.111,-1.401 -0.474,-2.034c-0.119,-0.21 -0.248,-0.422 -0.413,-0.595c-0.789,-0.832 -1.547,-1.716 -2.773,-1.917c-0.846,1.082 -1.112,2.332 -1.069,3.672l0.022,0.143c0.095,0.64 0.452,1.06 1.069,1.243c0.511,0.152 1.026,0.293 1.806,0.261Zm-1.008,-6.591c0.567,0.335 1.029,0.587 1.468,0.874c1.421,0.93 2.523,2.123 3.014,3.789c0.455,1.548 -0.178,2.677 -1.729,3.129c-1.306,0.379 -2.594,0.273 -3.86,-0.17c-1.241,-0.433 -1.869,-1.319 -1.907,-2.635c-0.028,-0.985 0.151,-1.931 0.511,-2.844c0.176,-0.448 0.375,-0.886 0.56,-1.321c-2.9,-1.927 -8.898,-1.511 -11.428,0.852c0.953,0.545 1.768,1.216 2.259,2.198c0.7,1.405 0.137,2.783 -1.332,3.249c-1.093,0.346 -1.933,-0.034 -2.329,-1.116c-0.285,-0.779 -0.371,-1.596 -0.359,-2.433c0.014,-0.943 -0.061,-0.998 -0.997,-0.883c-1.305,0.16 -2.562,0.528 -3.809,0.933c-3.502,1.139 -6.974,2.365 -10.582,3.165c-5.262,1.165 -10.409,0.902 -15.438,-1.052c-3.186,-1.238 -5.885,-3.157 -7.932,-5.937c-1.081,-1.468 -1.811,-3.096 -2.227,-4.861c-0.2,-0.85 -0.281,-1.721 -0.13,-2.6c0.461,-2.682 3.035,-3.784 5.28,-2.239c0.984,0.678 1.589,1.686 2.208,2.673c0.129,0.205 0.204,0.459 -0.013,0.661c-0.215,0.2 -0.469,0.129 -0.657,-0.03c-0.749,-0.63 -1.655,-0.784 -2.578,-0.871c-1.224,-0.116 -1.688,0.253 -1.835,1.498c-0.169,1.436 0.143,2.799 0.753,4.097c0.995,2.121 2.526,3.78 4.45,5.086c3.348,2.273 7.096,3.278 11.097,3.481c3.739,0.189 7.337,-0.552 10.862,-1.691c2.167,-0.7 4.295,-1.52 6.448,-2.266c1.783,-0.618 3.547,-1.338 5.485,-1.317c0.318,0.003 0.543,-0.14 0.765,-0.343c1.657,-1.514 3.727,-2.015 5.859,-2.304c2.098,-0.284 4.163,-0.054 6.179,0.594c0.474,0.152 0.864,0.242 1.283,-0.239c2.419,-2.774 5.683,-3.952 9.146,-4.708c3.507,-0.766 6.942,-0.371 10.332,0.695c2.46,0.773 4.799,1.834 7.13,2.919c2.822,1.313 5.704,2.444 8.806,2.921c2.858,0.439 5.705,0.345 8.542,-0.178c0.529,-0.097 1.013,-0.323 1.478,-0.594c0.232,-0.135 0.476,-0.142 0.632,0.104c0.142,0.226 0.085,0.47 -0.077,0.674c-0.409,0.517 -0.983,0.786 -1.585,0.983c-1.11,0.362 -2.264,0.522 -3.41,0.73c-4.591,0.835 -8.982,0.226 -13.194,-1.743c-1.581,-0.738 -3.146,-1.512 -4.714,-2.28c-1.832,-0.897 -3.691,-1.726 -5.643,-2.328c-4.737,-1.459 -9.298,-0.886 -13.712,1.228c-1.144,0.549 -2.159,1.288 -3.07,2.45Z" style="fill:url(#_Linear1);"/><path d="M131.465,15.366c-0.183,0.497 0.085,0.836 0.544,1.004c0.485,0.178 0.737,-0.15 0.854,-0.53c0.203,-0.663 0.56,-1.323 0.237,-2.121c-0.95,0.192 -1.352,0.876 -1.635,1.647Zm-11.686,1.572c0.617,-0.183 0.974,-0.603 1.068,-1.243l0.022,-0.143c0.044,-1.34 -0.222,-2.59 -1.068,-3.672c-1.226,0.201 -1.985,1.085 -2.774,1.917c-0.164,0.173 -0.293,0.385 -0.412,0.595c-0.363,0.633 -0.834,1.322 -0.474,2.034c0.402,0.795 1.332,0.633 1.832,0.773c0.78,0.032 1.295,-0.109 1.806,-0.261Zm-3.869,-8.78c-4.414,-2.114 -8.974,-2.687 -13.711,-1.228c-1.953,0.602 -3.812,1.431 -5.643,2.328c-1.568,0.768 -3.133,1.542 -4.714,2.28c-4.212,1.969 -8.603,2.578 -13.194,1.743c-1.146,-0.208 -2.3,-0.368 -3.41,-0.73c-0.602,-0.197 -1.176,-0.466 -1.585,-0.983c-0.162,-0.204 -0.219,-0.448 -0.077,-0.674c0.156,-0.246 0.399,-0.239 0.632,-0.104c0.465,0.271 0.949,0.497 1.478,0.594c2.837,0.523 5.683,0.617 8.542,0.178c3.102,-0.477 5.983,-1.608 8.806,-2.921c2.331,-1.085 4.67,-2.146 7.129,-2.919c3.391,-1.066 6.826,-1.461 10.333,-0.695c3.462,0.756 6.727,1.934 9.145,4.708c0.419,0.481 0.809,0.391 1.284,0.239c2.016,-0.648 4.081,-0.878 6.178,-0.594c2.133,0.289 4.201,0.79 5.859,2.304c0.222,0.203 0.448,0.346 0.766,0.343c1.937,-0.021 3.701,0.699 5.485,1.317c2.153,0.746 4.281,1.566 6.448,2.266c3.525,1.139 7.123,1.88 10.862,1.691c4,-0.203 7.748,-1.208 11.096,-3.481c1.924,-1.306 3.455,-2.965 4.451,-5.086c0.608,-1.298 0.921,-2.661 0.752,-4.097c-0.148,-1.245 -0.61,-1.614 -1.835,-1.498c-0.923,0.087 -1.829,0.241 -2.577,0.871c-0.189,0.159 -0.443,0.23 -0.658,0.03c-0.217,-0.202 -0.142,-0.456 -0.013,-0.661c0.619,-0.987 1.224,-1.995 2.209,-2.673c2.243,-1.545 4.818,-0.443 5.278,2.239c0.153,0.879 0.072,1.75 -0.13,2.6c-0.415,1.765 -1.144,3.393 -2.226,4.861c-2.047,2.78 -4.746,4.699 -7.932,5.937c-5.028,1.954 -10.176,2.217 -15.437,1.052c-3.608,-0.8 -7.08,-2.026 -10.582,-3.165c-1.247,-0.405 -2.504,-0.773 -3.809,-0.933c-0.937,-0.115 -1.011,-0.06 -0.998,0.883c0.012,0.837 -0.074,1.654 -0.359,2.433c-0.395,1.082 -1.235,1.462 -2.328,1.116c-1.47,-0.466 -2.032,-1.844 -1.332,-3.249c0.489,-0.982 1.306,-1.653 2.259,-2.198c-2.53,-2.363 -8.528,-2.779 -11.428,-0.852c0.185,0.435 0.384,0.873 0.56,1.321c0.359,0.913 0.539,1.859 0.511,2.844c-0.038,1.316 -0.666,2.202 -1.907,2.635c-1.267,0.443 -2.555,0.549 -3.86,0.17c-1.551,-0.452 -2.185,-1.581 -1.729,-3.129c0.49,-1.666 1.593,-2.859 3.014,-3.789c0.439,-0.287 0.901,-0.539 1.467,-0.874c-0.911,-1.162 -1.926,-1.901 -3.07,-2.45Z" style="fill:url(#_Linear2);"/><defs><linearGradient id="_Linear1" x1="0" y1="0" x2="1" y2="0" gradientUnits="userSpaceOnUse" gradientTransform="matrix(101.811,0,0,101.811,0.000259464,9.31552)"><stop offset="0" style="stop-color:#daa45a;stop-opacity:1"/><stop offset="0.1" style="stop-color:#f3c14e;stop-opacity:1"/><stop offset="0.2" style="stop-color:#fed469;stop-opacity:1"/><stop offset="0.3" style="stop-color:#fed77e;stop-opacity:1"/><stop offset="0.4" style="stop-color:#fed052;stop-opacity:1"/><stop offset="0.5" style="stop-color:#f5bb53;stop-opacity:1"/><stop offset="0.6" style="stop-color:#f9cb76;stop-opacity:1"/><stop offset="0.7" style="stop-color:#fed571;stop-opacity:1"/><stop offset="0.8" style="stop-color:#f5c24e;stop-opacity:1"/><stop offset="0.9" style="stop-color:#e2ad55;stop-opacity:1"/><stop offset="1" style="stop-color:#fecf4c;stop-opacity:1"/></linearGradient><linearGradient id="_Linear2" x1="0" y1="0" x2="1" y2="0" gradientUnits="userSpaceOnUse" gradientTransform="matrix(101.811,0,0,101.811,73.4952,9.31552)"><stop offset="0" style="stop-color:#daa45a;stop-opacity:1"/><stop offset="0.1" style="stop-color:#f3c14e;stop-opacity:1"/><stop offset="0.2" style="stop-color:#fed469;stop-opacity:1"/><stop offset="0.3" style="stop-color:#fed77e;stop-opacity:1"/><stop offset="0.4" style="stop-color:#fed052;stop-opacity:1"/><stop offset="0.5" style="stop-color:#f5bb53;stop-opacity:1"/><stop offset="0.6" style="stop-color:#f9cb76;stop-opacity:1"/><stop offset="0.7" style="stop-color:#fed571;stop-opacity:1"/><stop offset="0.8" style="stop-color:#f5c24e;stop-opacity:1"/><stop offset="0.9" style="stop-color:#e2ad55;stop-opacity:1"/><stop offset="1" style="stop-color:#fecf4c;stop-opacity:1"/></linearGradient></defs></svg>